<svg width="1940" height="343" viewBox="0 0 1940 343" fill="none" xmlns="http://www.w3.org/2000/svg">
<g clip-path="url(#clip0_880_619)">
<rect width="1940" height="343" fill="white"/>
<rect x="-3.90039" width="80.3148" height="20.5514" rx="3" fill="#E14646" fill-opacity="0.3"/>
<path d="M3.75249 14V3.81818H7.19283C7.98828 3.81818 8.64122 3.95407 9.15163 4.22585C9.66205 4.49432 10.0399 4.86387 10.2852 5.33452C10.5304 5.80516 10.6531 6.34044 10.6531 6.94034C10.6531 7.54025 10.5304 8.07221 10.2852 8.53622C10.0399 9.00024 9.66371 9.36482 9.15661 9.62997C8.6495 9.89181 8.00154 10.0227 7.21271 10.0227H4.42862V8.90909H7.17294C7.7165 8.90909 8.154 8.82955 8.48544 8.67045C8.82019 8.51136 9.06214 8.28598 9.21129 7.99432C9.36375 7.69934 9.43999 7.34801 9.43999 6.94034C9.43999 6.53267 9.36375 6.17637 9.21129 5.87145C9.05883 5.56652 8.81522 5.3312 8.48047 5.16548C8.14572 4.99645 7.70324 4.91193 7.15305 4.91193H4.98544V14H3.75249ZM8.5451 9.42614L11.0508 14H9.61896L7.15305 9.42614H8.5451ZM15.6681 14.1591C14.9324 14.1591 14.2976 13.9967 13.764 13.6719C13.2337 13.3438 12.8244 12.8864 12.536 12.2997C12.251 11.7098 12.1085 11.0237 12.1085 10.2415C12.1085 9.45928 12.251 8.76989 12.536 8.1733C12.8244 7.57339 13.2254 7.10606 13.7392 6.77131C14.2562 6.43324 14.8594 6.2642 15.5488 6.2642C15.9466 6.2642 16.3393 6.33049 16.7271 6.46307C17.1149 6.59564 17.4679 6.81108 17.786 7.10938C18.1042 7.40436 18.3578 7.79545 18.5467 8.28267C18.7356 8.76989 18.8301 9.36979 18.8301 10.0824V10.5795H12.9437V9.56534H17.6369C17.6369 9.13447 17.5507 8.75 17.3784 8.41193C17.2093 8.07386 16.9674 7.80705 16.6525 7.61151C16.341 7.41596 15.9731 7.31818 15.5488 7.31818C15.0815 7.31818 14.6771 7.43419 14.3358 7.66619C13.9977 7.89489 13.7375 8.19318 13.5552 8.56108C13.3729 8.92898 13.2818 9.32339 13.2818 9.74432V10.4205C13.2818 10.9972 13.3812 11.486 13.5801 11.8871C13.7823 12.2848 14.0623 12.5881 14.4203 12.7969C14.7782 13.0024 15.1942 13.1051 15.6681 13.1051C15.9764 13.1051 16.2548 13.062 16.5034 12.9759C16.7553 12.8864 16.9724 12.7538 17.1547 12.5781C17.3369 12.3991 17.4778 12.1771 17.5772 11.9119L18.7108 12.2301C18.5914 12.6146 18.3909 12.9527 18.1092 13.2443C17.8275 13.5327 17.4795 13.758 17.0652 13.9205C16.6509 14.0795 16.1852 14.1591 15.6681 14.1591ZM23.4984 14.1591C22.862 14.1591 22.3002 13.9983 21.813 13.6768C21.3258 13.352 20.9447 12.8946 20.6696 12.3047C20.3945 11.7114 20.2569 11.0104 20.2569 10.2017C20.2569 9.39962 20.3945 8.7036 20.6696 8.11364C20.9447 7.52367 21.3275 7.06794 21.818 6.74645C22.3085 6.42495 22.8753 6.2642 23.5183 6.2642C24.0154 6.2642 24.4082 6.34706 24.6966 6.51278C24.9882 6.67519 25.2103 6.8608 25.3627 7.0696C25.5185 7.27509 25.6395 7.44413 25.7257 7.5767H25.8251V3.81818H26.9984V14H25.8649V12.8267H25.7257C25.6395 12.9659 25.5169 13.1416 25.3578 13.3537C25.1987 13.5625 24.9717 13.7498 24.6767 13.9155C24.3817 14.0779 23.9889 14.1591 23.4984 14.1591ZM23.6575 13.1051C24.1281 13.1051 24.5259 12.9825 24.8507 12.7372C25.1755 12.4886 25.4224 12.1456 25.5914 11.7081C25.7605 11.2673 25.845 10.7585 25.845 10.1818C25.845 9.61174 25.7621 9.11293 25.5964 8.68537C25.4307 8.2545 25.1854 7.91974 24.8606 7.68111C24.5358 7.43916 24.1348 7.31818 23.6575 7.31818C23.1603 7.31818 22.746 7.44579 22.4146 7.70099C22.0865 7.95289 21.8395 8.29593 21.6738 8.73011C21.5114 9.16098 21.4302 9.64489 21.4302 10.1818C21.4302 10.7254 21.5131 11.2192 21.6788 11.6634C21.8478 12.1042 22.0964 12.4555 22.4245 12.7173C22.756 12.9759 23.167 13.1051 23.6575 13.1051ZM36.5687 6.36364V7.35795H32.6113V6.36364H36.5687ZM33.7647 4.53409H34.938V11.8125C34.938 12.1439 34.9861 12.3925 35.0822 12.5582C35.1816 12.7206 35.3076 12.83 35.46 12.8864C35.6158 12.9394 35.7799 12.9659 35.9522 12.9659C36.0815 12.9659 36.1876 12.9593 36.2704 12.946C36.3533 12.9295 36.4196 12.9162 36.4693 12.9062L36.7079 13.9602C36.6284 13.9901 36.5173 14.0199 36.3748 14.0497C36.2323 14.0829 36.0517 14.0994 35.8329 14.0994C35.5015 14.0994 35.1767 14.0282 34.8585 13.8857C34.5436 13.7431 34.2818 13.526 34.073 13.2344C33.8675 12.9427 33.7647 12.5748 33.7647 12.1307V4.53409ZM40.5808 14.179C40.0969 14.179 39.6577 14.0878 39.2633 13.9055C38.8689 13.7199 38.5557 13.4531 38.3237 13.1051C38.0917 12.7538 37.9757 12.3295 37.9757 11.8324C37.9757 11.3949 38.0618 11.0402 38.2342 10.7685C38.4065 10.4934 38.6369 10.2779 38.9252 10.1222C39.2136 9.96638 39.5318 9.85038 39.8798 9.77415C40.2311 9.6946 40.5841 9.63163 40.9387 9.58523C41.4028 9.52557 41.7789 9.48082 42.0673 9.45099C42.359 9.41785 42.5711 9.36316 42.7037 9.28693C42.8395 9.2107 42.9075 9.07812 42.9075 8.8892V8.84943C42.9075 8.3589 42.7733 7.97775 42.5048 7.70597C42.2396 7.43419 41.8369 7.2983 41.2967 7.2983C40.7366 7.2983 40.2974 7.42093 39.9792 7.66619C39.661 7.91146 39.4373 8.1733 39.3081 8.4517L38.1944 8.05398C38.3933 7.58996 38.6584 7.22869 38.9899 6.97017C39.3246 6.70833 39.6892 6.52604 40.0836 6.4233C40.4814 6.31723 40.8725 6.2642 41.2569 6.2642C41.5022 6.2642 41.7839 6.29403 42.1021 6.35369C42.4236 6.41004 42.7335 6.5277 43.0318 6.70668C43.3334 6.88565 43.5836 7.15578 43.7825 7.51705C43.9814 7.87831 44.0808 8.36222 44.0808 8.96875V14H42.9075V12.9659H42.8478C42.7683 13.1316 42.6357 13.3089 42.4501 13.4979C42.2645 13.6868 42.0176 13.8475 41.7093 13.9801C41.4011 14.1127 41.0249 14.179 40.5808 14.179ZM40.7598 13.125C41.2238 13.125 41.6149 13.0339 41.9331 12.8516C42.2546 12.6693 42.4965 12.4339 42.6589 12.1456C42.8246 11.8572 42.9075 11.554 42.9075 11.2358V10.1619C42.8578 10.2216 42.7484 10.2763 42.5794 10.326C42.4136 10.3724 42.2214 10.4138 42.0027 10.4503C41.7872 10.4834 41.5768 10.5133 41.3713 10.5398C41.1691 10.563 41.005 10.5829 40.8791 10.5994C40.5742 10.6392 40.2891 10.7038 40.024 10.7933C39.7621 10.8795 39.55 11.0104 39.3876 11.1861C39.2285 11.3584 39.149 11.5937 39.149 11.892C39.149 12.2997 39.2998 12.608 39.6014 12.8168C39.9063 13.0223 40.2924 13.125 40.7598 13.125ZM49.3047 17.0227C48.7379 17.0227 48.2507 16.9498 47.843 16.804C47.4354 16.6615 47.0956 16.4725 46.8239 16.2372C46.5554 16.0052 46.3416 15.7566 46.1825 15.4915L47.1172 14.8352C47.2232 14.9744 47.3575 15.1335 47.5199 15.3125C47.6823 15.4948 47.9044 15.6522 48.1861 15.7848C48.4711 15.9207 48.844 15.9886 49.3047 15.9886C49.9212 15.9886 50.4299 15.8395 50.831 15.5412C51.232 15.2429 51.4325 14.7756 51.4325 14.1392V12.5881H51.3331C51.2469 12.7273 51.1243 12.8996 50.9652 13.1051C50.8094 13.3073 50.584 13.4879 50.2891 13.647C49.9974 13.8028 49.603 13.8807 49.1058 13.8807C48.4893 13.8807 47.9358 13.7348 47.4453 13.4432C46.9581 13.1515 46.572 12.7273 46.2869 12.1705C46.0052 11.6136 45.8643 10.9375 45.8643 10.142C45.8643 9.35985 46.0019 8.67874 46.277 8.09872C46.5521 7.51539 46.9349 7.06463 47.4254 6.74645C47.916 6.42495 48.4827 6.2642 49.1257 6.2642C49.6229 6.2642 50.0173 6.34706 50.3089 6.51278C50.6039 6.67519 50.8293 6.8608 50.9851 7.0696C51.1442 7.27509 51.2668 7.44413 51.353 7.5767H51.4723V6.36364H52.6058V14.2188C52.6058 14.875 52.4567 15.4086 52.1584 15.8196C51.8634 16.2339 51.4657 16.5372 50.9652 16.7294C50.468 16.925 49.9145 17.0227 49.3047 17.0227ZM49.2649 12.8267C49.7356 12.8267 50.1333 12.719 50.4581 12.5036C50.7829 12.2881 51.0298 11.9782 51.1989 11.5739C51.3679 11.1695 51.4524 10.6856 51.4524 10.1222C51.4524 9.57197 51.3696 9.08641 51.2038 8.66548C51.0381 8.24455 50.7929 7.91477 50.468 7.67614C50.1432 7.4375 49.7422 7.31818 49.2649 7.31818C48.7678 7.31818 48.3535 7.44413 48.022 7.69602C47.6939 7.94792 47.447 8.28598 47.2812 8.71023C47.1188 9.13447 47.0376 9.60511 47.0376 10.1222C47.0376 10.6525 47.1205 11.1214 47.2862 11.5291C47.4553 11.9335 47.7038 12.2517 48.032 12.4837C48.3634 12.7124 48.7744 12.8267 49.2649 12.8267Z" fill="#37352F"/>
<path d="M-4 0H1944V343H-4V0Z" fill="#CCFFE2"/>
<path fill-rule="evenodd" clip-rule="evenodd" d="M1943.55 237.166V343H475.379C535.532 293.689 599.915 248.214 668.419 207.174C1082.63 -40.9783 1540.57 29.3673 1943.55 237.166Z" fill="#FFECEA"/>
<path fill-rule="evenodd" clip-rule="evenodd" d="M1373.87 169.08C1373.93 113.585 1408.92 58.5251 1467.21 46.2885C1518.95 35.4248 1554.79 83.7468 1584.16 124.932C1611.76 163.654 1640.06 210.578 1611.16 248.223C1579.64 289.281 1518.29 294.69 1466.96 277.571C1415.17 260.296 1373.82 220.063 1373.87 169.08Z" fill="#0018A4"/>
<path fill-rule="evenodd" clip-rule="evenodd" d="M135.669 64.0357C166.613 63.0846 197.933 81.7112 205.785 114.146C212.756 142.942 186.444 163.876 163.997 181.054C142.892 197.204 117.227 213.893 95.7258 198.369C72.2758 181.438 68.1767 147.166 76.8161 118.11C85.5348 88.7878 107.239 64.9096 135.669 64.0357Z" fill="white"/>
<rect x="-4" width="1944" height="100" fill="#0018A4"/>
<path d="M-39.1865 61.016L-29.1005 33.3H-28.3625L-38.8175 62H-39.5555L-42.1385 54.907L-44.7215 62H-45.4595L-55.9145 33.3H-55.1765L-45.0905 61.016L-42.5075 53.923L-50.0105 33.3H-49.2725L-42.1385 52.898L-35.0045 33.3H-34.2665L-41.7695 53.882L-39.1865 61.016ZM-13.4859 42.115V60.155C-10.7389 58.474 -8.56586 55.071 -8.56586 51.135C-8.56586 47.199 -10.7389 43.796 -13.4859 42.115ZM-19.2669 39.778C-17.4219 39.778 -15.6999 40.229 -14.1419 41.008V40.27H-13.4859V41.377C-11.1899 42.648 -9.42686 44.944 -8.56586 47.322V40.27H-7.90986V62H-8.56586V54.907C-9.38586 57.244 -11.1899 59.663 -13.4859 60.934V62H-14.1419V61.262C-15.6999 62.041 -17.4219 62.492 -19.2669 62.492C-25.5399 62.492 -30.6239 57.408 -30.6239 51.135C-30.6239 44.862 -25.5399 39.778 -19.2669 39.778ZM-19.2669 61.836C-17.4219 61.836 -15.6589 61.385 -14.1419 60.565V53.841C-15.1259 55.645 -17.0529 56.916 -19.2669 56.916C-22.4649 56.916 -25.0479 54.333 -25.0479 51.135C-25.0479 47.937 -22.4649 45.354 -19.2669 45.354C-17.0529 45.354 -15.1259 46.625 -14.1419 48.47V41.746C-15.6589 40.926 -17.4219 40.434 -19.2669 40.434C-25.1709 40.434 -29.9679 45.231 -29.9679 51.135C-29.9679 57.039 -25.1709 61.836 -19.2669 61.836ZM-19.2669 56.26C-16.3969 56.26 -14.1419 53.964 -14.1419 51.135C-14.1419 48.306 -16.3969 46.01 -19.2669 46.01C-22.0959 46.01 -24.3919 48.306 -24.3919 51.135C-24.3919 53.964 -22.0959 56.26 -19.2669 56.26ZM1.84718 62V42.689C-0.366824 44.042 -3.07282 46.83 -3.07282 51.709V62H-3.72882V40.27H-3.07282V47.732C-2.04782 44.903 -0.448824 43.304 1.84718 41.951V40.27H2.50318V41.582C4.14318 40.762 5.90618 40.352 7.62818 40.352V41.008C5.90618 41.008 4.10218 41.459 2.50318 42.32V49.044C3.44618 47.199 5.41418 45.928 7.62818 45.928V46.584C4.75818 46.584 2.50318 48.88 2.50318 51.709V62H1.84718ZM10.0847 62V40.27H10.7407V62H10.0847ZM16.3167 40.27V62H15.6607V40.27H16.3167ZM15.6607 38.138V31.25H16.3167V38.138H15.6607ZM10.7407 31.25V38.138H10.0847V31.25H10.7407ZM36.4028 42.115V60.155C39.1498 58.474 41.3228 55.071 41.3228 51.135C41.3228 47.199 39.1498 43.796 36.4028 42.115ZM30.6218 39.778C32.4668 39.778 34.1888 40.229 35.7468 41.008V40.27H36.4028V41.377C38.6988 42.648 40.4618 44.944 41.3228 47.322V40.27H41.9788V62H41.3228V54.907C40.5028 57.244 38.6988 59.663 36.4028 60.934V62H35.7468V61.262C34.1888 62.041 32.4668 62.492 30.6218 62.492C24.3488 62.492 19.2648 57.408 19.2648 51.135C19.2648 44.862 24.3488 39.778 30.6218 39.778ZM30.6218 61.836C32.4668 61.836 34.2298 61.385 35.7468 60.565V53.841C34.7628 55.645 32.8358 56.916 30.6218 56.916C27.4238 56.916 24.8408 54.333 24.8408 51.135C24.8408 47.937 27.4238 45.354 30.6218 45.354C32.8358 45.354 34.7628 46.625 35.7468 48.47V41.746C34.2298 40.926 32.4668 40.434 30.6218 40.434C24.7178 40.434 19.9208 45.231 19.9208 51.135C19.9208 57.039 24.7178 61.836 30.6218 61.836ZM30.6218 56.26C33.4918 56.26 35.7468 53.964 35.7468 51.135C35.7468 48.306 33.4918 46.01 30.6218 46.01C27.7928 46.01 25.4968 48.306 25.4968 51.135C25.4968 53.964 27.7928 56.26 30.6218 56.26ZM57.1068 62.492C50.7928 62.492 45.7088 57.367 45.7088 51.135V31.25H46.3648V47.363C47.2258 44.985 48.9888 42.689 51.2848 41.418V31.25H51.9408V41.008C53.4988 40.229 55.2618 39.778 57.1068 39.778C63.3798 39.778 68.4638 44.862 68.4638 51.135C68.4638 57.408 63.3798 62.492 57.1068 62.492ZM57.1068 56.916C53.9088 56.916 51.2848 54.292 51.2848 51.135V42.156C48.5378 43.837 46.3648 47.24 46.3648 51.176C46.3648 57.039 51.1208 61.836 57.1068 61.836C63.0108 61.836 67.8078 57.039 67.8078 51.135C67.8078 45.231 63.0108 40.434 57.1068 40.434C55.2618 40.434 53.4578 40.926 51.9408 41.746V48.511C52.9248 46.625 54.8928 45.354 57.1068 45.354C60.3048 45.354 62.8878 47.937 62.8878 51.135C62.8878 54.333 60.3048 56.916 57.1068 56.916ZM57.1068 46.01C54.2368 46.01 51.9408 48.306 51.9408 51.135C51.9408 53.964 54.2368 56.26 57.1068 56.26C59.9358 56.26 62.2318 53.964 62.2318 51.135C62.2318 48.306 59.9358 46.01 57.1068 46.01ZM72.0805 31.25V62H71.4245V31.25H72.0805ZM77.6565 31.25V62H77.0005V31.25H77.6565ZM80.6047 51.135C80.6047 44.862 85.6887 39.778 91.9617 39.778C96.9637 39.778 101.187 42.976 102.704 47.486L89.3787 55.563C90.1577 56.014 91.0187 56.26 91.9617 56.26C94.0117 56.26 95.7747 55.03 96.5947 53.308L97.2097 53.595C96.3077 55.563 94.2987 56.916 91.9617 56.916C90.7727 56.916 89.6657 56.547 88.7637 55.932L84.3357 58.638C86.2627 60.606 88.9687 61.836 91.9617 61.836C96.2257 61.836 99.9567 59.294 101.679 55.645L102.253 55.932C100.449 59.827 96.5127 62.492 91.9617 62.492C85.6887 62.492 80.6047 57.408 80.6047 51.135ZM81.2607 51.135C81.2607 52.324 81.4657 53.431 81.7937 54.497L86.2217 51.791C86.1807 51.586 86.1807 51.34 86.1807 51.135C86.1807 47.937 88.7637 45.354 91.9617 45.354C93.1507 45.354 94.2987 45.723 95.2007 46.338L99.5877 43.673C97.6607 41.664 94.9547 40.434 91.9617 40.434C86.0577 40.434 81.2607 45.231 81.2607 51.135ZM82.0397 55.112C82.4907 56.219 83.1057 57.244 83.8847 58.146L88.1897 55.522C87.2877 54.743 86.6317 53.677 86.3447 52.488L82.0397 55.112ZM86.8367 51.135V51.422L94.5857 46.707C93.8067 46.256 92.9047 46.01 91.9617 46.01C89.1327 46.01 86.8367 48.306 86.8367 51.135ZM86.9187 52.16C87.1647 53.349 87.8617 54.415 88.8047 55.153L97.0047 50.151C96.7587 48.962 96.1027 47.896 95.1597 47.117L86.9187 52.16ZM95.7747 46.789C96.6767 47.568 97.3327 48.593 97.5787 49.823L101.925 47.158C101.474 46.051 100.818 45.067 100.08 44.165L95.7747 46.789ZM103.713 46.953C103.713 42.976 106.911 39.778 110.888 39.778C113.84 39.778 116.382 41.582 117.489 44.124L116.874 44.411C115.89 42.074 113.553 40.434 110.888 40.434C107.28 40.434 104.369 43.345 104.369 46.953C104.369 50.028 106.46 52.57 109.33 53.308L111.134 53.759C111.831 53.923 112.323 54.579 112.323 55.317C112.323 56.219 111.626 56.916 110.724 56.916C110.027 56.916 109.453 56.506 109.207 55.85L109.822 55.604C109.945 55.973 110.273 56.26 110.724 56.26C111.257 56.26 111.667 55.85 111.667 55.317C111.667 54.866 111.421 54.497 110.97 54.374L109.125 53.923C106.009 53.144 103.713 50.315 103.713 46.953ZM104.123 58.187L104.738 57.9C105.722 60.237 108.018 61.836 110.724 61.836C114.332 61.836 117.243 58.925 117.243 55.317C117.243 52.242 115.152 49.7 112.282 48.962L110.478 48.511C109.74 48.306 109.289 47.691 109.289 46.953C109.289 46.051 109.986 45.354 110.888 45.354C111.585 45.354 112.159 45.805 112.364 46.42L111.79 46.666C111.667 46.297 111.298 46.01 110.888 46.01C110.355 46.01 109.945 46.42 109.945 46.953C109.945 47.404 110.191 47.773 110.642 47.896L112.487 48.347C115.644 49.126 117.899 51.955 117.899 55.317C117.899 59.294 114.701 62.492 110.724 62.492C107.772 62.492 105.23 60.729 104.123 58.187ZM148.499 61.959L148.007 62.369L145.383 59.499C142.759 61.18 139.807 62.492 137.019 62.492C132.55 62.492 128.655 58.925 128.655 54.456C128.655 51.545 130.418 48.757 132.796 47.281L133.821 46.625L133.616 46.379C132.386 44.985 131.525 43.017 131.525 40.967C131.525 36.498 135.174 32.808 139.643 32.808C144.112 32.808 147.761 36.498 147.761 40.967C147.761 43.96 145.916 46.379 143.661 47.855L143.415 48.019L146.121 51.012C147.433 49.782 148.376 48.757 148.663 48.429L149.114 48.921C148.827 49.208 147.884 50.274 146.531 51.504L149.852 55.194C151.164 54.046 152.148 53.062 152.599 52.611L153.05 53.062C152.599 53.513 151.615 54.497 150.303 55.686L152.763 58.392L152.271 58.802L149.811 56.096C148.417 57.285 147.269 58.146 145.957 59.13L148.499 61.959ZM134.272 47.158L133.124 47.855C130.869 49.249 129.311 51.709 129.311 54.456C129.311 58.597 132.878 61.836 137.019 61.836C139.643 61.836 142.431 60.606 144.932 59.007L141.652 55.358C140.053 56.383 138.413 57.08 137.019 57.08C135.625 57.08 134.231 55.85 134.231 54.456C134.231 53.39 134.723 52.447 135.912 51.75L137.552 50.766L134.272 47.158ZM138.659 43.673L137.839 42.771C137.265 42.156 137.101 41.541 137.101 40.967C137.101 39.573 138.249 38.384 139.643 38.384C141.037 38.384 142.185 39.573 142.185 40.967C142.185 41.951 141.488 42.689 140.709 43.181L139.643 43.837L142.964 47.527L143.169 47.404C145.465 46.01 147.105 43.714 147.105 40.967C147.105 36.826 143.784 33.464 139.643 33.464C135.502 33.464 132.181 36.826 132.181 40.967C132.181 42.894 132.919 44.657 134.108 45.969L134.395 46.297L138.659 43.673ZM137.019 56.424C138.29 56.424 139.766 55.768 141.242 54.866L138.003 51.258L136.24 52.324C135.256 52.939 134.887 53.636 134.887 54.456C134.887 55.522 135.953 56.424 137.019 56.424ZM137.757 40.967C137.757 41.418 137.921 41.91 138.331 42.361L139.192 43.345L140.381 42.607C141.037 42.197 141.529 41.664 141.529 40.967C141.529 39.901 140.709 39.04 139.643 39.04C138.577 39.04 137.757 39.901 137.757 40.967ZM142.841 48.347L138.577 50.93L141.775 54.497C143.128 53.554 144.399 52.57 145.629 51.463L142.841 48.347ZM147.761 56.957C148.458 56.424 148.827 56.096 149.36 55.645L146.08 51.914C144.932 52.98 143.579 54.046 142.226 54.989L145.506 58.638C146.121 58.228 147.269 57.326 147.761 56.957ZM142.39 47.855L139.11 44.165L134.846 46.789L138.126 50.438L142.39 47.855ZM178.309 47.65C178.309 43.263 175.029 39.696 170.56 39.532V55.768C175.029 55.604 178.309 52.037 178.309 47.65ZM170.56 56.424V61.344C178.022 61.18 183.885 55.153 183.885 47.65C183.885 40.188 178.022 34.12 170.56 33.956V38.876C175.439 39.04 178.965 42.935 178.965 47.65C178.965 52.365 175.439 56.26 170.56 56.424ZM164.328 62V33.3H170.232C178.186 33.3 184.541 39.737 184.541 47.65C184.541 55.563 178.186 62 170.232 62H164.328ZM169.904 55.768V39.532H164.984V55.768H169.904ZM169.904 56.424H164.984V61.344H169.904V56.424ZM169.904 38.876V33.956H164.984V38.876H169.904ZM203.566 42.115V60.155C206.313 58.474 208.486 55.071 208.486 51.135C208.486 47.199 206.313 43.796 203.566 42.115ZM197.785 39.778C199.63 39.778 201.352 40.229 202.91 41.008V40.27H203.566V41.377C205.862 42.648 207.625 44.944 208.486 47.322V40.27H209.142V62H208.486V54.907C207.666 57.244 205.862 59.663 203.566 60.934V62H202.91V61.262C201.352 62.041 199.63 62.492 197.785 62.492C191.512 62.492 186.428 57.408 186.428 51.135C186.428 44.862 191.512 39.778 197.785 39.778ZM197.785 61.836C199.63 61.836 201.393 61.385 202.91 60.565V53.841C201.926 55.645 199.999 56.916 197.785 56.916C194.587 56.916 192.004 54.333 192.004 51.135C192.004 47.937 194.587 45.354 197.785 45.354C199.999 45.354 201.926 46.625 202.91 48.47V41.746C201.393 40.926 199.63 40.434 197.785 40.434C191.881 40.434 187.084 45.231 187.084 51.135C187.084 57.039 191.881 61.836 197.785 61.836ZM197.785 56.26C200.655 56.26 202.91 53.964 202.91 51.135C202.91 48.306 200.655 46.01 197.785 46.01C194.956 46.01 192.66 48.306 192.66 51.135C192.66 53.964 194.956 56.26 197.785 56.26ZM215.373 40.926H212.134V40.27H215.373V33.3H216.029V40.27H220.949V33.3H221.605V40.27H224.844V40.926H221.605V45.846H224.844V46.502H221.605V62H220.949V46.502H216.029V62H215.373V46.502H212.134V45.846H215.373V40.926ZM220.949 40.926H216.029V45.846H220.949V40.926ZM243.325 42.115V60.155C246.072 58.474 248.245 55.071 248.245 51.135C248.245 47.199 246.072 43.796 243.325 42.115ZM237.544 39.778C239.389 39.778 241.111 40.229 242.669 41.008V40.27H243.325V41.377C245.621 42.648 247.384 44.944 248.245 47.322V40.27H248.901V62H248.245V54.907C247.425 57.244 245.621 59.663 243.325 60.934V62H242.669V61.262C241.111 62.041 239.389 62.492 237.544 62.492C231.271 62.492 226.187 57.408 226.187 51.135C226.187 44.862 231.271 39.778 237.544 39.778ZM237.544 61.836C239.389 61.836 241.152 61.385 242.669 60.565V53.841C241.685 55.645 239.758 56.916 237.544 56.916C234.346 56.916 231.763 54.333 231.763 51.135C231.763 47.937 234.346 45.354 237.544 45.354C239.758 45.354 241.685 46.625 242.669 48.47V41.746C241.152 40.926 239.389 40.434 237.544 40.434C231.64 40.434 226.843 45.231 226.843 51.135C226.843 57.039 231.64 61.836 237.544 61.836ZM237.544 56.26C240.414 56.26 242.669 53.964 242.669 51.135C242.669 48.306 240.414 46.01 237.544 46.01C234.715 46.01 232.419 48.306 232.419 51.135C232.419 53.964 234.715 56.26 237.544 56.26ZM265.279 33.956H259.416V33.3H277.374V33.956H271.511V38.876H277.374V39.532H271.511V62H270.855V39.532H265.935V62H265.279V39.532H259.416V38.876H265.279V33.956ZM270.855 33.956H265.935V38.876H270.855V33.956ZM300.604 40.27L286.418 71.02H285.721L288.263 65.526L285.393 59.376L280.022 71.02H279.325L285.065 58.597L276.496 40.27H277.193L285.393 57.859L288.222 51.75L282.892 40.27H283.589L288.591 50.971L293.511 40.27H294.208L288.919 51.709L291.789 57.859L299.907 40.27H300.604ZM288.632 64.747L291.461 58.638L288.591 52.488L285.762 58.638L288.632 64.747ZM308.146 60.155V42.115C305.399 43.796 303.226 47.199 303.226 51.135C303.226 55.071 305.399 58.474 308.146 60.155ZM313.927 62.492C312.082 62.492 310.36 62.041 308.802 61.262V71.02H308.146V60.893C305.85 59.622 304.046 57.285 303.226 54.948V71.02H302.57V40.27H303.226V47.363C304.046 44.985 305.85 42.607 308.146 41.336V40.27H308.802V41.008C310.36 40.229 312.082 39.778 313.927 39.778C320.2 39.778 325.284 44.862 325.284 51.135C325.284 57.408 320.2 62.492 313.927 62.492ZM313.927 56.916C311.713 56.916 309.786 55.645 308.802 53.8V60.524C310.319 61.344 312.082 61.836 313.927 61.836C319.831 61.836 324.628 57.039 324.628 51.135C324.628 45.231 319.831 40.434 313.927 40.434C312.082 40.434 310.319 40.885 308.802 41.705V48.429C309.786 46.625 311.713 45.354 313.927 45.354C317.125 45.354 319.708 47.937 319.708 51.135C319.708 54.333 317.125 56.916 313.927 56.916ZM313.927 46.01C311.057 46.01 308.802 48.306 308.802 51.135C308.802 53.964 311.057 56.26 313.927 56.26C316.756 56.26 319.052 53.964 319.052 51.135C319.052 48.306 316.756 46.01 313.927 46.01ZM327.005 51.135C327.005 44.862 332.089 39.778 338.362 39.778C343.364 39.778 347.587 42.976 349.104 47.486L335.779 55.563C336.558 56.014 337.419 56.26 338.362 56.26C340.412 56.26 342.175 55.03 342.995 53.308L343.61 53.595C342.708 55.563 340.699 56.916 338.362 56.916C337.173 56.916 336.066 56.547 335.164 55.932L330.736 58.638C332.663 60.606 335.369 61.836 338.362 61.836C342.626 61.836 346.357 59.294 348.079 55.645L348.653 55.932C346.849 59.827 342.913 62.492 338.362 62.492C332.089 62.492 327.005 57.408 327.005 51.135ZM327.661 51.135C327.661 52.324 327.866 53.431 328.194 54.497L332.622 51.791C332.581 51.586 332.581 51.34 332.581 51.135C332.581 47.937 335.164 45.354 338.362 45.354C339.551 45.354 340.699 45.723 341.601 46.338L345.988 43.673C344.061 41.664 341.355 40.434 338.362 40.434C332.458 40.434 327.661 45.231 327.661 51.135ZM328.44 55.112C328.891 56.219 329.506 57.244 330.285 58.146L334.59 55.522C333.688 54.743 333.032 53.677 332.745 52.488L328.44 55.112ZM333.237 51.135V51.422L340.986 46.707C340.207 46.256 339.305 46.01 338.362 46.01C335.533 46.01 333.237 48.306 333.237 51.135ZM333.319 52.16C333.565 53.349 334.262 54.415 335.205 55.153L343.405 50.151C343.159 48.962 342.503 47.896 341.56 47.117L333.319 52.16ZM342.175 46.789C343.077 47.568 343.733 48.593 343.979 49.823L348.325 47.158C347.874 46.051 347.218 45.067 346.48 44.165L342.175 46.789ZM350.113 46.953C350.113 42.976 353.311 39.778 357.288 39.778C360.24 39.778 362.782 41.582 363.889 44.124L363.274 44.411C362.29 42.074 359.953 40.434 357.288 40.434C353.68 40.434 350.769 43.345 350.769 46.953C350.769 50.028 352.86 52.57 355.73 53.308L357.534 53.759C358.231 53.923 358.723 54.579 358.723 55.317C358.723 56.219 358.026 56.916 357.124 56.916C356.427 56.916 355.853 56.506 355.607 55.85L356.222 55.604C356.345 55.973 356.673 56.26 357.124 56.26C357.657 56.26 358.067 55.85 358.067 55.317C358.067 54.866 357.821 54.497 357.37 54.374L355.525 53.923C352.409 53.144 350.113 50.315 350.113 46.953ZM350.523 58.187L351.138 57.9C352.122 60.237 354.418 61.836 357.124 61.836C360.732 61.836 363.643 58.925 363.643 55.317C363.643 52.242 361.552 49.7 358.682 48.962L356.878 48.511C356.14 48.306 355.689 47.691 355.689 46.953C355.689 46.051 356.386 45.354 357.288 45.354C357.985 45.354 358.559 45.805 358.764 46.42L358.19 46.666C358.067 46.297 357.698 46.01 357.288 46.01C356.755 46.01 356.345 46.42 356.345 46.953C356.345 47.404 356.591 47.773 357.042 47.896L358.887 48.347C362.044 49.126 364.299 51.955 364.299 55.317C364.299 59.294 361.101 62.492 357.124 62.492C354.172 62.492 351.63 60.729 350.523 58.187ZM389.872 61.016L399.958 33.3H400.696L390.241 62H389.503L386.92 54.907L384.337 62H383.599L373.144 33.3H373.882L383.968 61.016L386.551 53.923L379.048 33.3H379.786L386.92 52.898L394.054 33.3H394.792L387.289 53.882L389.872 61.016ZM415.573 42.115V60.155C418.32 58.474 420.493 55.071 420.493 51.135C420.493 47.199 418.32 43.796 415.573 42.115ZM409.792 39.778C411.637 39.778 413.359 40.229 414.917 41.008V40.27H415.573V41.377C417.869 42.648 419.632 44.944 420.493 47.322V40.27H421.149V62H420.493V54.907C419.673 57.244 417.869 59.663 415.573 60.934V62H414.917V61.262C413.359 62.041 411.637 62.492 409.792 62.492C403.519 62.492 398.435 57.408 398.435 51.135C398.435 44.862 403.519 39.778 409.792 39.778ZM409.792 61.836C411.637 61.836 413.4 61.385 414.917 60.565V53.841C413.933 55.645 412.006 56.916 409.792 56.916C406.594 56.916 404.011 54.333 404.011 51.135C404.011 47.937 406.594 45.354 409.792 45.354C412.006 45.354 413.933 46.625 414.917 48.47V41.746C413.4 40.926 411.637 40.434 409.792 40.434C403.888 40.434 399.091 45.231 399.091 51.135C399.091 57.039 403.888 61.836 409.792 61.836ZM409.792 56.26C412.662 56.26 414.917 53.964 414.917 51.135C414.917 48.306 412.662 46.01 409.792 46.01C406.963 46.01 404.667 48.306 404.667 51.135C404.667 53.964 406.963 56.26 409.792 56.26ZM430.906 62V42.689C428.692 44.042 425.986 46.83 425.986 51.709V62H425.33V40.27H425.986V47.732C427.011 44.903 428.61 43.304 430.906 41.951V40.27H431.562V41.582C433.202 40.762 434.965 40.352 436.687 40.352V41.008C434.965 41.008 433.161 41.459 431.562 42.32V49.044C432.505 47.199 434.473 45.928 436.687 45.928V46.584C433.817 46.584 431.562 48.88 431.562 51.709V62H430.906ZM439.143 62V40.27H439.799V62H439.143ZM445.375 40.27V62H444.719V40.27H445.375ZM444.719 38.138V31.25H445.375V38.138H444.719ZM439.799 31.25V38.138H439.143V31.25H439.799ZM465.461 42.115V60.155C468.208 58.474 470.381 55.071 470.381 51.135C470.381 47.199 468.208 43.796 465.461 42.115ZM459.68 39.778C461.525 39.778 463.247 40.229 464.805 41.008V40.27H465.461V41.377C467.757 42.648 469.52 44.944 470.381 47.322V40.27H471.037V62H470.381V54.907C469.561 57.244 467.757 59.663 465.461 60.934V62H464.805V61.262C463.247 62.041 461.525 62.492 459.68 62.492C453.407 62.492 448.323 57.408 448.323 51.135C448.323 44.862 453.407 39.778 459.68 39.778ZM459.68 61.836C461.525 61.836 463.288 61.385 464.805 60.565V53.841C463.821 55.645 461.894 56.916 459.68 56.916C456.482 56.916 453.899 54.333 453.899 51.135C453.899 47.937 456.482 45.354 459.68 45.354C461.894 45.354 463.821 46.625 464.805 48.47V41.746C463.288 40.926 461.525 40.434 459.68 40.434C453.776 40.434 448.979 45.231 448.979 51.135C448.979 57.039 453.776 61.836 459.68 61.836ZM459.68 56.26C462.55 56.26 464.805 53.964 464.805 51.135C464.805 48.306 462.55 46.01 459.68 46.01C456.851 46.01 454.555 48.306 454.555 51.135C454.555 53.964 456.851 56.26 459.68 56.26ZM486.165 62.492C479.851 62.492 474.767 57.367 474.767 51.135V31.25H475.423V47.363C476.284 44.985 478.047 42.689 480.343 41.418V31.25H480.999V41.008C482.557 40.229 484.32 39.778 486.165 39.778C492.438 39.778 497.522 44.862 497.522 51.135C497.522 57.408 492.438 62.492 486.165 62.492ZM486.165 56.916C482.967 56.916 480.343 54.292 480.343 51.135V42.156C477.596 43.837 475.423 47.24 475.423 51.176C475.423 57.039 480.179 61.836 486.165 61.836C492.069 61.836 496.866 57.039 496.866 51.135C496.866 45.231 492.069 40.434 486.165 40.434C484.32 40.434 482.516 40.926 480.999 41.746V48.511C481.983 46.625 483.951 45.354 486.165 45.354C489.363 45.354 491.946 47.937 491.946 51.135C491.946 54.333 489.363 56.916 486.165 56.916ZM486.165 46.01C483.295 46.01 480.999 48.306 480.999 51.135C480.999 53.964 483.295 56.26 486.165 56.26C488.994 56.26 491.29 53.964 491.29 51.135C491.29 48.306 488.994 46.01 486.165 46.01ZM501.139 31.25V62H500.483V31.25H501.139ZM506.715 31.25V62H506.059V31.25H506.715ZM509.663 51.135C509.663 44.862 514.747 39.778 521.02 39.778C526.022 39.778 530.245 42.976 531.762 47.486L518.437 55.563C519.216 56.014 520.077 56.26 521.02 56.26C523.07 56.26 524.833 55.03 525.653 53.308L526.268 53.595C525.366 55.563 523.357 56.916 521.02 56.916C519.831 56.916 518.724 56.547 517.822 55.932L513.394 58.638C515.321 60.606 518.027 61.836 521.02 61.836C525.284 61.836 529.015 59.294 530.737 55.645L531.311 55.932C529.507 59.827 525.571 62.492 521.02 62.492C514.747 62.492 509.663 57.408 509.663 51.135ZM510.319 51.135C510.319 52.324 510.524 53.431 510.852 54.497L515.28 51.791C515.239 51.586 515.239 51.34 515.239 51.135C515.239 47.937 517.822 45.354 521.02 45.354C522.209 45.354 523.357 45.723 524.259 46.338L528.646 43.673C526.719 41.664 524.013 40.434 521.02 40.434C515.116 40.434 510.319 45.231 510.319 51.135ZM511.098 55.112C511.549 56.219 512.164 57.244 512.943 58.146L517.248 55.522C516.346 54.743 515.69 53.677 515.403 52.488L511.098 55.112ZM515.895 51.135V51.422L523.644 46.707C522.865 46.256 521.963 46.01 521.02 46.01C518.191 46.01 515.895 48.306 515.895 51.135ZM515.977 52.16C516.223 53.349 516.92 54.415 517.863 55.153L526.063 50.151C525.817 48.962 525.161 47.896 524.218 47.117L515.977 52.16ZM524.833 46.789C525.735 47.568 526.391 48.593 526.637 49.823L530.983 47.158C530.532 46.051 529.876 45.067 529.138 44.165L524.833 46.789ZM532.772 46.953C532.772 42.976 535.97 39.778 539.947 39.778C542.899 39.778 545.441 41.582 546.548 44.124L545.933 44.411C544.949 42.074 542.612 40.434 539.947 40.434C536.339 40.434 533.428 43.345 533.428 46.953C533.428 50.028 535.519 52.57 538.389 53.308L540.193 53.759C540.89 53.923 541.382 54.579 541.382 55.317C541.382 56.219 540.685 56.916 539.783 56.916C539.086 56.916 538.512 56.506 538.266 55.85L538.881 55.604C539.004 55.973 539.332 56.26 539.783 56.26C540.316 56.26 540.726 55.85 540.726 55.317C540.726 54.866 540.48 54.497 540.029 54.374L538.184 53.923C535.068 53.144 532.772 50.315 532.772 46.953ZM533.182 58.187L533.797 57.9C534.781 60.237 537.077 61.836 539.783 61.836C543.391 61.836 546.302 58.925 546.302 55.317C546.302 52.242 544.211 49.7 541.341 48.962L539.537 48.511C538.799 48.306 538.348 47.691 538.348 46.953C538.348 46.051 539.045 45.354 539.947 45.354C540.644 45.354 541.218 45.805 541.423 46.42L540.849 46.666C540.726 46.297 540.357 46.01 539.947 46.01C539.414 46.01 539.004 46.42 539.004 46.953C539.004 47.404 539.25 47.773 539.701 47.896L541.546 48.347C544.703 49.126 546.958 51.955 546.958 55.317C546.958 59.294 543.76 62.492 539.783 62.492C536.831 62.492 534.289 60.729 533.182 58.187ZM577.558 61.959L577.066 62.369L574.442 59.499C571.818 61.18 568.866 62.492 566.078 62.492C561.609 62.492 557.714 58.925 557.714 54.456C557.714 51.545 559.477 48.757 561.855 47.281L562.88 46.625L562.675 46.379C561.445 44.985 560.584 43.017 560.584 40.967C560.584 36.498 564.233 32.808 568.702 32.808C573.171 32.808 576.82 36.498 576.82 40.967C576.82 43.96 574.975 46.379 572.72 47.855L572.474 48.019L575.18 51.012C576.492 49.782 577.435 48.757 577.722 48.429L578.173 48.921C577.886 49.208 576.943 50.274 575.59 51.504L578.911 55.194C580.223 54.046 581.207 53.062 581.658 52.611L582.109 53.062C581.658 53.513 580.674 54.497 579.362 55.686L581.822 58.392L581.33 58.802L578.87 56.096C577.476 57.285 576.328 58.146 575.016 59.13L577.558 61.959ZM563.331 47.158L562.183 47.855C559.928 49.249 558.37 51.709 558.37 54.456C558.37 58.597 561.937 61.836 566.078 61.836C568.702 61.836 571.49 60.606 573.991 59.007L570.711 55.358C569.112 56.383 567.472 57.08 566.078 57.08C564.684 57.08 563.29 55.85 563.29 54.456C563.29 53.39 563.782 52.447 564.971 51.75L566.611 50.766L563.331 47.158ZM567.718 43.673L566.898 42.771C566.324 42.156 566.16 41.541 566.16 40.967C566.16 39.573 567.308 38.384 568.702 38.384C570.096 38.384 571.244 39.573 571.244 40.967C571.244 41.951 570.547 42.689 569.768 43.181L568.702 43.837L572.023 47.527L572.228 47.404C574.524 46.01 576.164 43.714 576.164 40.967C576.164 36.826 572.843 33.464 568.702 33.464C564.561 33.464 561.24 36.826 561.24 40.967C561.24 42.894 561.978 44.657 563.167 45.969L563.454 46.297L567.718 43.673ZM566.078 56.424C567.349 56.424 568.825 55.768 570.301 54.866L567.062 51.258L565.299 52.324C564.315 52.939 563.946 53.636 563.946 54.456C563.946 55.522 565.012 56.424 566.078 56.424ZM566.816 40.967C566.816 41.418 566.98 41.91 567.39 42.361L568.251 43.345L569.44 42.607C570.096 42.197 570.588 41.664 570.588 40.967C570.588 39.901 569.768 39.04 568.702 39.04C567.636 39.04 566.816 39.901 566.816 40.967ZM571.9 48.347L567.636 50.93L570.834 54.497C572.187 53.554 573.458 52.57 574.688 51.463L571.9 48.347ZM576.82 56.957C577.517 56.424 577.886 56.096 578.419 55.645L575.139 51.914C573.991 52.98 572.638 54.046 571.285 54.989L574.565 58.638C575.18 58.228 576.328 57.326 576.82 56.957ZM571.449 47.855L568.169 44.165L563.905 46.789L567.185 50.438L571.449 47.855ZM607.367 47.65C607.367 43.263 604.087 39.696 599.618 39.532V55.768C604.087 55.604 607.367 52.037 607.367 47.65ZM599.618 56.424V61.344C607.08 61.18 612.943 55.153 612.943 47.65C612.943 40.188 607.08 34.12 599.618 33.956V38.876C604.497 39.04 608.023 42.935 608.023 47.65C608.023 52.365 604.497 56.26 599.618 56.424ZM593.386 62V33.3H599.29C607.244 33.3 613.599 39.737 613.599 47.65C613.599 55.563 607.244 62 599.29 62H593.386ZM598.962 55.768V39.532H594.042V55.768H598.962ZM598.962 56.424H594.042V61.344H598.962V56.424ZM598.962 38.876V33.956H594.042V38.876H598.962ZM632.624 42.115V60.155C635.371 58.474 637.544 55.071 637.544 51.135C637.544 47.199 635.371 43.796 632.624 42.115ZM626.843 39.778C628.688 39.778 630.41 40.229 631.968 41.008V40.27H632.624V41.377C634.92 42.648 636.683 44.944 637.544 47.322V40.27H638.2V62H637.544V54.907C636.724 57.244 634.92 59.663 632.624 60.934V62H631.968V61.262C630.41 62.041 628.688 62.492 626.843 62.492C620.57 62.492 615.486 57.408 615.486 51.135C615.486 44.862 620.57 39.778 626.843 39.778ZM626.843 61.836C628.688 61.836 630.451 61.385 631.968 60.565V53.841C630.984 55.645 629.057 56.916 626.843 56.916C623.645 56.916 621.062 54.333 621.062 51.135C621.062 47.937 623.645 45.354 626.843 45.354C629.057 45.354 630.984 46.625 631.968 48.47V41.746C630.451 40.926 628.688 40.434 626.843 40.434C620.939 40.434 616.142 45.231 616.142 51.135C616.142 57.039 620.939 61.836 626.843 61.836ZM626.843 56.26C629.713 56.26 631.968 53.964 631.968 51.135C631.968 48.306 629.713 46.01 626.843 46.01C624.014 46.01 621.718 48.306 621.718 51.135C621.718 53.964 624.014 56.26 626.843 56.26ZM644.432 40.926H641.193V40.27H644.432V33.3H645.088V40.27H650.008V33.3H650.664V40.27H653.903V40.926H650.664V45.846H653.903V46.502H650.664V62H650.008V46.502H645.088V62H644.432V46.502H641.193V45.846H644.432V40.926ZM650.008 40.926H645.088V45.846H650.008V40.926ZM672.383 42.115V60.155C675.13 58.474 677.303 55.071 677.303 51.135C677.303 47.199 675.13 43.796 672.383 42.115ZM666.602 39.778C668.447 39.778 670.169 40.229 671.727 41.008V40.27H672.383V41.377C674.679 42.648 676.442 44.944 677.303 47.322V40.27H677.959V62H677.303V54.907C676.483 57.244 674.679 59.663 672.383 60.934V62H671.727V61.262C670.169 62.041 668.447 62.492 666.602 62.492C660.329 62.492 655.245 57.408 655.245 51.135C655.245 44.862 660.329 39.778 666.602 39.778ZM666.602 61.836C668.447 61.836 670.21 61.385 671.727 60.565V53.841C670.743 55.645 668.816 56.916 666.602 56.916C663.404 56.916 660.821 54.333 660.821 51.135C660.821 47.937 663.404 45.354 666.602 45.354C668.816 45.354 670.743 46.625 671.727 48.47V41.746C670.21 40.926 668.447 40.434 666.602 40.434C660.698 40.434 655.901 45.231 655.901 51.135C655.901 57.039 660.698 61.836 666.602 61.836ZM666.602 56.26C669.472 56.26 671.727 53.964 671.727 51.135C671.727 48.306 669.472 46.01 666.602 46.01C663.773 46.01 661.477 48.306 661.477 51.135C661.477 53.964 663.773 56.26 666.602 56.26ZM694.338 33.956H688.475V33.3H706.433V33.956H700.57V38.876H706.433V39.532H700.57V62H699.914V39.532H694.994V62H694.338V39.532H688.475V38.876H694.338V33.956ZM699.914 33.956H694.994V38.876H699.914V33.956ZM729.662 40.27L715.476 71.02H714.779L717.321 65.526L714.451 59.376L709.08 71.02H708.383L714.123 58.597L705.554 40.27H706.251L714.451 57.859L717.28 51.75L711.95 40.27H712.647L717.649 50.971L722.569 40.27H723.266L717.977 51.709L720.847 57.859L728.965 40.27H729.662ZM717.69 64.747L720.519 58.638L717.649 52.488L714.82 58.638L717.69 64.747ZM737.205 60.155V42.115C734.458 43.796 732.285 47.199 732.285 51.135C732.285 55.071 734.458 58.474 737.205 60.155ZM742.986 62.492C741.141 62.492 739.419 62.041 737.861 61.262V71.02H737.205V60.893C734.909 59.622 733.105 57.285 732.285 54.948V71.02H731.629V40.27H732.285V47.363C733.105 44.985 734.909 42.607 737.205 41.336V40.27H737.861V41.008C739.419 40.229 741.141 39.778 742.986 39.778C749.259 39.778 754.343 44.862 754.343 51.135C754.343 57.408 749.259 62.492 742.986 62.492ZM742.986 56.916C740.772 56.916 738.845 55.645 737.861 53.8V60.524C739.378 61.344 741.141 61.836 742.986 61.836C748.89 61.836 753.687 57.039 753.687 51.135C753.687 45.231 748.89 40.434 742.986 40.434C741.141 40.434 739.378 40.885 737.861 41.705V48.429C738.845 46.625 740.772 45.354 742.986 45.354C746.184 45.354 748.767 47.937 748.767 51.135C748.767 54.333 746.184 56.916 742.986 56.916ZM742.986 46.01C740.116 46.01 737.861 48.306 737.861 51.135C737.861 53.964 740.116 56.26 742.986 56.26C745.815 56.26 748.111 53.964 748.111 51.135C748.111 48.306 745.815 46.01 742.986 46.01ZM756.064 51.135C756.064 44.862 761.148 39.778 767.421 39.778C772.423 39.778 776.646 42.976 778.163 47.486L764.838 55.563C765.617 56.014 766.478 56.26 767.421 56.26C769.471 56.26 771.234 55.03 772.054 53.308L772.669 53.595C771.767 55.563 769.758 56.916 767.421 56.916C766.232 56.916 765.125 56.547 764.223 55.932L759.795 58.638C761.722 60.606 764.428 61.836 767.421 61.836C771.685 61.836 775.416 59.294 777.138 55.645L777.712 55.932C775.908 59.827 771.972 62.492 767.421 62.492C761.148 62.492 756.064 57.408 756.064 51.135ZM756.72 51.135C756.72 52.324 756.925 53.431 757.253 54.497L761.681 51.791C761.64 51.586 761.64 51.34 761.64 51.135C761.64 47.937 764.223 45.354 767.421 45.354C768.61 45.354 769.758 45.723 770.66 46.338L775.047 43.673C773.12 41.664 770.414 40.434 767.421 40.434C761.517 40.434 756.72 45.231 756.72 51.135ZM757.499 55.112C757.95 56.219 758.565 57.244 759.344 58.146L763.649 55.522C762.747 54.743 762.091 53.677 761.804 52.488L757.499 55.112ZM762.296 51.135V51.422L770.045 46.707C769.266 46.256 768.364 46.01 767.421 46.01C764.592 46.01 762.296 48.306 762.296 51.135ZM762.378 52.16C762.624 53.349 763.321 54.415 764.264 55.153L772.464 50.151C772.218 48.962 771.562 47.896 770.619 47.117L762.378 52.16ZM771.234 46.789C772.136 47.568 772.792 48.593 773.038 49.823L777.384 47.158C776.933 46.051 776.277 45.067 775.539 44.165L771.234 46.789ZM779.172 46.953C779.172 42.976 782.37 39.778 786.347 39.778C789.299 39.778 791.841 41.582 792.948 44.124L792.333 44.411C791.349 42.074 789.012 40.434 786.347 40.434C782.739 40.434 779.828 43.345 779.828 46.953C779.828 50.028 781.919 52.57 784.789 53.308L786.593 53.759C787.29 53.923 787.782 54.579 787.782 55.317C787.782 56.219 787.085 56.916 786.183 56.916C785.486 56.916 784.912 56.506 784.666 55.85L785.281 55.604C785.404 55.973 785.732 56.26 786.183 56.26C786.716 56.26 787.126 55.85 787.126 55.317C787.126 54.866 786.88 54.497 786.429 54.374L784.584 53.923C781.468 53.144 779.172 50.315 779.172 46.953ZM779.582 58.187L780.197 57.9C781.181 60.237 783.477 61.836 786.183 61.836C789.791 61.836 792.702 58.925 792.702 55.317C792.702 52.242 790.611 49.7 787.741 48.962L785.937 48.511C785.199 48.306 784.748 47.691 784.748 46.953C784.748 46.051 785.445 45.354 786.347 45.354C787.044 45.354 787.618 45.805 787.823 46.42L787.249 46.666C787.126 46.297 786.757 46.01 786.347 46.01C785.814 46.01 785.404 46.42 785.404 46.953C785.404 47.404 785.65 47.773 786.101 47.896L787.946 48.347C791.103 49.126 793.358 51.955 793.358 55.317C793.358 59.294 790.16 62.492 786.183 62.492C783.231 62.492 780.689 60.729 779.582 58.187ZM818.931 61.016L829.017 33.3H829.755L819.3 62H818.562L815.979 54.907L813.396 62H812.658L802.203 33.3H802.941L813.027 61.016L815.61 53.923L808.107 33.3H808.845L815.979 52.898L823.113 33.3H823.851L816.348 53.882L818.931 61.016ZM844.631 42.115V60.155C847.378 58.474 849.551 55.071 849.551 51.135C849.551 47.199 847.378 43.796 844.631 42.115ZM838.85 39.778C840.695 39.778 842.417 40.229 843.975 41.008V40.27H844.631V41.377C846.927 42.648 848.69 44.944 849.551 47.322V40.27H850.207V62H849.551V54.907C848.731 57.244 846.927 59.663 844.631 60.934V62H843.975V61.262C842.417 62.041 840.695 62.492 838.85 62.492C832.577 62.492 827.493 57.408 827.493 51.135C827.493 44.862 832.577 39.778 838.85 39.778ZM838.85 61.836C840.695 61.836 842.458 61.385 843.975 60.565V53.841C842.991 55.645 841.064 56.916 838.85 56.916C835.652 56.916 833.069 54.333 833.069 51.135C833.069 47.937 835.652 45.354 838.85 45.354C841.064 45.354 842.991 46.625 843.975 48.47V41.746C842.458 40.926 840.695 40.434 838.85 40.434C832.946 40.434 828.149 45.231 828.149 51.135C828.149 57.039 832.946 61.836 838.85 61.836ZM838.85 56.26C841.72 56.26 843.975 53.964 843.975 51.135C843.975 48.306 841.72 46.01 838.85 46.01C836.021 46.01 833.725 48.306 833.725 51.135C833.725 53.964 836.021 56.26 838.85 56.26ZM859.964 62V42.689C857.75 44.042 855.044 46.83 855.044 51.709V62H854.388V40.27H855.044V47.732C856.069 44.903 857.668 43.304 859.964 41.951V40.27H860.62V41.582C862.26 40.762 864.023 40.352 865.745 40.352V41.008C864.023 41.008 862.219 41.459 860.62 42.32V49.044C861.563 47.199 863.531 45.928 865.745 45.928V46.584C862.875 46.584 860.62 48.88 860.62 51.709V62H859.964ZM868.202 62V40.27H868.858V62H868.202ZM874.434 40.27V62H873.778V40.27H874.434ZM873.778 38.138V31.25H874.434V38.138H873.778ZM868.858 31.25V38.138H868.202V31.25H868.858ZM894.52 42.115V60.155C897.267 58.474 899.44 55.071 899.44 51.135C899.44 47.199 897.267 43.796 894.52 42.115ZM888.739 39.778C890.584 39.778 892.306 40.229 893.864 41.008V40.27H894.52V41.377C896.816 42.648 898.579 44.944 899.44 47.322V40.27H900.096V62H899.44V54.907C898.62 57.244 896.816 59.663 894.52 60.934V62H893.864V61.262C892.306 62.041 890.584 62.492 888.739 62.492C882.466 62.492 877.382 57.408 877.382 51.135C877.382 44.862 882.466 39.778 888.739 39.778ZM888.739 61.836C890.584 61.836 892.347 61.385 893.864 60.565V53.841C892.88 55.645 890.953 56.916 888.739 56.916C885.541 56.916 882.958 54.333 882.958 51.135C882.958 47.937 885.541 45.354 888.739 45.354C890.953 45.354 892.88 46.625 893.864 48.47V41.746C892.347 40.926 890.584 40.434 888.739 40.434C882.835 40.434 878.038 45.231 878.038 51.135C878.038 57.039 882.835 61.836 888.739 61.836ZM888.739 56.26C891.609 56.26 893.864 53.964 893.864 51.135C893.864 48.306 891.609 46.01 888.739 46.01C885.91 46.01 883.614 48.306 883.614 51.135C883.614 53.964 885.91 56.26 888.739 56.26ZM915.224 62.492C908.91 62.492 903.826 57.367 903.826 51.135V31.25H904.482V47.363C905.343 44.985 907.106 42.689 909.402 41.418V31.25H910.058V41.008C911.616 40.229 913.379 39.778 915.224 39.778C921.497 39.778 926.581 44.862 926.581 51.135C926.581 57.408 921.497 62.492 915.224 62.492ZM915.224 56.916C912.026 56.916 909.402 54.292 909.402 51.135V42.156C906.655 43.837 904.482 47.24 904.482 51.176C904.482 57.039 909.238 61.836 915.224 61.836C921.128 61.836 925.925 57.039 925.925 51.135C925.925 45.231 921.128 40.434 915.224 40.434C913.379 40.434 911.575 40.926 910.058 41.746V48.511C911.042 46.625 913.01 45.354 915.224 45.354C918.422 45.354 921.005 47.937 921.005 51.135C921.005 54.333 918.422 56.916 915.224 56.916ZM915.224 46.01C912.354 46.01 910.058 48.306 910.058 51.135C910.058 53.964 912.354 56.26 915.224 56.26C918.053 56.26 920.349 53.964 920.349 51.135C920.349 48.306 918.053 46.01 915.224 46.01ZM930.198 31.25V62H929.542V31.25H930.198ZM935.774 31.25V62H935.118V31.25H935.774ZM938.722 51.135C938.722 44.862 943.806 39.778 950.079 39.778C955.081 39.778 959.304 42.976 960.821 47.486L947.496 55.563C948.275 56.014 949.136 56.26 950.079 56.26C952.129 56.26 953.892 55.03 954.712 53.308L955.327 53.595C954.425 55.563 952.416 56.916 950.079 56.916C948.89 56.916 947.783 56.547 946.881 55.932L942.453 58.638C944.38 60.606 947.086 61.836 950.079 61.836C954.343 61.836 958.074 59.294 959.796 55.645L960.37 55.932C958.566 59.827 954.63 62.492 950.079 62.492C943.806 62.492 938.722 57.408 938.722 51.135ZM939.378 51.135C939.378 52.324 939.583 53.431 939.911 54.497L944.339 51.791C944.298 51.586 944.298 51.34 944.298 51.135C944.298 47.937 946.881 45.354 950.079 45.354C951.268 45.354 952.416 45.723 953.318 46.338L957.705 43.673C955.778 41.664 953.072 40.434 950.079 40.434C944.175 40.434 939.378 45.231 939.378 51.135ZM940.157 55.112C940.608 56.219 941.223 57.244 942.002 58.146L946.307 55.522C945.405 54.743 944.749 53.677 944.462 52.488L940.157 55.112ZM944.954 51.135V51.422L952.703 46.707C951.924 46.256 951.022 46.01 950.079 46.01C947.25 46.01 944.954 48.306 944.954 51.135ZM945.036 52.16C945.282 53.349 945.979 54.415 946.922 55.153L955.122 50.151C954.876 48.962 954.22 47.896 953.277 47.117L945.036 52.16ZM953.892 46.789C954.794 47.568 955.45 48.593 955.696 49.823L960.042 47.158C959.591 46.051 958.935 45.067 958.197 44.165L953.892 46.789ZM961.83 46.953C961.83 42.976 965.028 39.778 969.005 39.778C971.957 39.778 974.499 41.582 975.606 44.124L974.991 44.411C974.007 42.074 971.67 40.434 969.005 40.434C965.397 40.434 962.486 43.345 962.486 46.953C962.486 50.028 964.577 52.57 967.447 53.308L969.251 53.759C969.948 53.923 970.44 54.579 970.44 55.317C970.44 56.219 969.743 56.916 968.841 56.916C968.144 56.916 967.57 56.506 967.324 55.85L967.939 55.604C968.062 55.973 968.39 56.26 968.841 56.26C969.374 56.26 969.784 55.85 969.784 55.317C969.784 54.866 969.538 54.497 969.087 54.374L967.242 53.923C964.126 53.144 961.83 50.315 961.83 46.953ZM962.24 58.187L962.855 57.9C963.839 60.237 966.135 61.836 968.841 61.836C972.449 61.836 975.36 58.925 975.36 55.317C975.36 52.242 973.269 49.7 970.399 48.962L968.595 48.511C967.857 48.306 967.406 47.691 967.406 46.953C967.406 46.051 968.103 45.354 969.005 45.354C969.702 45.354 970.276 45.805 970.481 46.42L969.907 46.666C969.784 46.297 969.415 46.01 969.005 46.01C968.472 46.01 968.062 46.42 968.062 46.953C968.062 47.404 968.308 47.773 968.759 47.896L970.604 48.347C973.761 49.126 976.016 51.955 976.016 55.317C976.016 59.294 972.818 62.492 968.841 62.492C965.889 62.492 963.347 60.729 962.24 58.187ZM1006.62 61.959L1006.12 62.369L1003.5 59.499C1000.88 61.18 997.925 62.492 995.137 62.492C990.668 62.492 986.773 58.925 986.773 54.456C986.773 51.545 988.536 48.757 990.914 47.281L991.939 46.625L991.734 46.379C990.504 44.985 989.643 43.017 989.643 40.967C989.643 36.498 993.292 32.808 997.761 32.808C1002.23 32.808 1005.88 36.498 1005.88 40.967C1005.88 43.96 1004.03 46.379 1001.78 47.855L1001.53 48.019L1004.24 51.012C1005.55 49.782 1006.49 48.757 1006.78 48.429L1007.23 48.921C1006.94 49.208 1006 50.274 1004.65 51.504L1007.97 55.194C1009.28 54.046 1010.27 53.062 1010.72 52.611L1011.17 53.062C1010.72 53.513 1009.73 54.497 1008.42 55.686L1010.88 58.392L1010.39 58.802L1007.93 56.096C1006.53 57.285 1005.39 58.146 1004.07 59.13L1006.62 61.959ZM992.39 47.158L991.242 47.855C988.987 49.249 987.429 51.709 987.429 54.456C987.429 58.597 990.996 61.836 995.137 61.836C997.761 61.836 1000.55 60.606 1003.05 59.007L999.77 55.358C998.171 56.383 996.531 57.08 995.137 57.08C993.743 57.08 992.349 55.85 992.349 54.456C992.349 53.39 992.841 52.447 994.03 51.75L995.67 50.766L992.39 47.158ZM996.777 43.673L995.957 42.771C995.383 42.156 995.219 41.541 995.219 40.967C995.219 39.573 996.367 38.384 997.761 38.384C999.155 38.384 1000.3 39.573 1000.3 40.967C1000.3 41.951 999.606 42.689 998.827 43.181L997.761 43.837L1001.08 47.527L1001.29 47.404C1003.58 46.01 1005.22 43.714 1005.22 40.967C1005.22 36.826 1001.9 33.464 997.761 33.464C993.62 33.464 990.299 36.826 990.299 40.967C990.299 42.894 991.037 44.657 992.226 45.969L992.513 46.297L996.777 43.673ZM995.137 56.424C996.408 56.424 997.884 55.768 999.36 54.866L996.121 51.258L994.358 52.324C993.374 52.939 993.005 53.636 993.005 54.456C993.005 55.522 994.071 56.424 995.137 56.424ZM995.875 40.967C995.875 41.418 996.039 41.91 996.449 42.361L997.31 43.345L998.499 42.607C999.155 42.197 999.647 41.664 999.647 40.967C999.647 39.901 998.827 39.04 997.761 39.04C996.695 39.04 995.875 39.901 995.875 40.967ZM1000.96 48.347L996.695 50.93L999.893 54.497C1001.25 53.554 1002.52 52.57 1003.75 51.463L1000.96 48.347ZM1005.88 56.957C1006.58 56.424 1006.94 56.096 1007.48 55.645L1004.2 51.914C1003.05 52.98 1001.7 54.046 1000.34 54.989L1003.62 58.638C1004.24 58.228 1005.39 57.326 1005.88 56.957ZM1000.51 47.855L997.228 44.165L992.964 46.789L996.244 50.438L1000.51 47.855ZM1036.43 47.65C1036.43 43.263 1033.15 39.696 1028.68 39.532V55.768C1033.15 55.604 1036.43 52.037 1036.43 47.65ZM1028.68 56.424V61.344C1036.14 61.18 1042 55.153 1042 47.65C1042 40.188 1036.14 34.12 1028.68 33.956V38.876C1033.56 39.04 1037.08 42.935 1037.08 47.65C1037.08 52.365 1033.56 56.26 1028.68 56.424ZM1022.44 62V33.3H1028.35C1036.3 33.3 1042.66 39.737 1042.66 47.65C1042.66 55.563 1036.3 62 1028.35 62H1022.44ZM1028.02 55.768V39.532H1023.1V55.768H1028.02ZM1028.02 56.424H1023.1V61.344H1028.02V56.424ZM1028.02 38.876V33.956H1023.1V38.876H1028.02ZM1061.68 42.115V60.155C1064.43 58.474 1066.6 55.071 1066.6 51.135C1066.6 47.199 1064.43 43.796 1061.68 42.115ZM1055.9 39.778C1057.75 39.778 1059.47 40.229 1061.03 41.008V40.27H1061.68V41.377C1063.98 42.648 1065.74 44.944 1066.6 47.322V40.27H1067.26V62H1066.6V54.907C1065.78 57.244 1063.98 59.663 1061.68 60.934V62H1061.03V61.262C1059.47 62.041 1057.75 62.492 1055.9 62.492C1049.63 62.492 1044.55 57.408 1044.55 51.135C1044.55 44.862 1049.63 39.778 1055.9 39.778ZM1055.9 61.836C1057.75 61.836 1059.51 61.385 1061.03 60.565V53.841C1060.04 55.645 1058.12 56.916 1055.9 56.916C1052.7 56.916 1050.12 54.333 1050.12 51.135C1050.12 47.937 1052.7 45.354 1055.9 45.354C1058.12 45.354 1060.04 46.625 1061.03 48.47V41.746C1059.51 40.926 1057.75 40.434 1055.9 40.434C1050 40.434 1045.2 45.231 1045.2 51.135C1045.2 57.039 1050 61.836 1055.9 61.836ZM1055.9 56.26C1058.77 56.26 1061.03 53.964 1061.03 51.135C1061.03 48.306 1058.77 46.01 1055.9 46.01C1053.07 46.01 1050.78 48.306 1050.78 51.135C1050.78 53.964 1053.07 56.26 1055.9 56.26ZM1073.49 40.926H1070.25V40.27H1073.49V33.3H1074.15V40.27H1079.07V33.3H1079.72V40.27H1082.96V40.926H1079.72V45.846H1082.96V46.502H1079.72V62H1079.07V46.502H1074.15V62H1073.49V46.502H1070.25V45.846H1073.49V40.926ZM1079.07 40.926H1074.15V45.846H1079.07V40.926ZM1101.44 42.115V60.155C1104.19 58.474 1106.36 55.071 1106.36 51.135C1106.36 47.199 1104.19 43.796 1101.44 42.115ZM1095.66 39.778C1097.51 39.778 1099.23 40.229 1100.79 41.008V40.27H1101.44V41.377C1103.74 42.648 1105.5 44.944 1106.36 47.322V40.27H1107.02V62H1106.36V54.907C1105.54 57.244 1103.74 59.663 1101.44 60.934V62H1100.79V61.262C1099.23 62.041 1097.51 62.492 1095.66 62.492C1089.39 62.492 1084.3 57.408 1084.3 51.135C1084.3 44.862 1089.39 39.778 1095.66 39.778ZM1095.66 61.836C1097.51 61.836 1099.27 61.385 1100.79 60.565V53.841C1099.8 55.645 1097.87 56.916 1095.66 56.916C1092.46 56.916 1089.88 54.333 1089.88 51.135C1089.88 47.937 1092.46 45.354 1095.66 45.354C1097.87 45.354 1099.8 46.625 1100.79 48.47V41.746C1099.27 40.926 1097.51 40.434 1095.66 40.434C1089.76 40.434 1084.96 45.231 1084.96 51.135C1084.96 57.039 1089.76 61.836 1095.66 61.836ZM1095.66 56.26C1098.53 56.26 1100.79 53.964 1100.79 51.135C1100.79 48.306 1098.53 46.01 1095.66 46.01C1092.83 46.01 1090.54 48.306 1090.54 51.135C1090.54 53.964 1092.83 56.26 1095.66 56.26ZM1123.4 33.956H1117.53V33.3H1135.49V33.956H1129.63V38.876H1135.49V39.532H1129.63V62H1128.97V39.532H1124.05V62H1123.4V39.532H1117.53V38.876H1123.4V33.956ZM1128.97 33.956H1124.05V38.876H1128.97V33.956ZM1158.72 40.27L1144.53 71.02H1143.84L1146.38 65.526L1143.51 59.376L1138.14 71.02H1137.44L1143.18 58.597L1134.61 40.27H1135.31L1143.51 57.859L1146.34 51.75L1141.01 40.27H1141.71L1146.71 50.971L1151.63 40.27H1152.32L1147.04 51.709L1149.91 57.859L1158.02 40.27H1158.72ZM1146.75 64.747L1149.58 58.638L1146.71 52.488L1143.88 58.638L1146.75 64.747ZM1166.26 60.155V42.115C1163.52 43.796 1161.34 47.199 1161.34 51.135C1161.34 55.071 1163.52 58.474 1166.26 60.155ZM1172.04 62.492C1170.2 62.492 1168.48 62.041 1166.92 61.262V71.02H1166.26V60.893C1163.97 59.622 1162.16 57.285 1161.34 54.948V71.02H1160.69V40.27H1161.34V47.363C1162.16 44.985 1163.97 42.607 1166.26 41.336V40.27H1166.92V41.008C1168.48 40.229 1170.2 39.778 1172.04 39.778C1178.32 39.778 1183.4 44.862 1183.4 51.135C1183.4 57.408 1178.32 62.492 1172.04 62.492ZM1172.04 56.916C1169.83 56.916 1167.9 55.645 1166.92 53.8V60.524C1168.44 61.344 1170.2 61.836 1172.04 61.836C1177.95 61.836 1182.75 57.039 1182.75 51.135C1182.75 45.231 1177.95 40.434 1172.04 40.434C1170.2 40.434 1168.44 40.885 1166.92 41.705V48.429C1167.9 46.625 1169.83 45.354 1172.04 45.354C1175.24 45.354 1177.83 47.937 1177.83 51.135C1177.83 54.333 1175.24 56.916 1172.04 56.916ZM1172.04 46.01C1169.17 46.01 1166.92 48.306 1166.92 51.135C1166.92 53.964 1169.17 56.26 1172.04 56.26C1174.87 56.26 1177.17 53.964 1177.17 51.135C1177.17 48.306 1174.87 46.01 1172.04 46.01ZM1185.12 51.135C1185.12 44.862 1190.21 39.778 1196.48 39.778C1201.48 39.778 1205.7 42.976 1207.22 47.486L1193.9 55.563C1194.68 56.014 1195.54 56.26 1196.48 56.26C1198.53 56.26 1200.29 55.03 1201.11 53.308L1201.73 53.595C1200.83 55.563 1198.82 56.916 1196.48 56.916C1195.29 56.916 1194.18 56.547 1193.28 55.932L1188.85 58.638C1190.78 60.606 1193.49 61.836 1196.48 61.836C1200.74 61.836 1204.47 59.294 1206.2 55.645L1206.77 55.932C1204.97 59.827 1201.03 62.492 1196.48 62.492C1190.21 62.492 1185.12 57.408 1185.12 51.135ZM1185.78 51.135C1185.78 52.324 1185.98 53.431 1186.31 54.497L1190.74 51.791C1190.7 51.586 1190.7 51.34 1190.7 51.135C1190.7 47.937 1193.28 45.354 1196.48 45.354C1197.67 45.354 1198.82 45.723 1199.72 46.338L1204.11 43.673C1202.18 41.664 1199.47 40.434 1196.48 40.434C1190.58 40.434 1185.78 45.231 1185.78 51.135ZM1186.56 55.112C1187.01 56.219 1187.62 57.244 1188.4 58.146L1192.71 55.522C1191.81 54.743 1191.15 53.677 1190.86 52.488L1186.56 55.112ZM1191.35 51.135V51.422L1199.1 46.707C1198.32 46.256 1197.42 46.01 1196.48 46.01C1193.65 46.01 1191.35 48.306 1191.35 51.135ZM1191.44 52.16C1191.68 53.349 1192.38 54.415 1193.32 55.153L1201.52 50.151C1201.28 48.962 1200.62 47.896 1199.68 47.117L1191.44 52.16ZM1200.29 46.789C1201.19 47.568 1201.85 48.593 1202.1 49.823L1206.44 47.158C1205.99 46.051 1205.34 45.067 1204.6 44.165L1200.29 46.789ZM1208.23 46.953C1208.23 42.976 1211.43 39.778 1215.41 39.778C1218.36 39.778 1220.9 41.582 1222.01 44.124L1221.39 44.411C1220.41 42.074 1218.07 40.434 1215.41 40.434C1211.8 40.434 1208.89 43.345 1208.89 46.953C1208.89 50.028 1210.98 52.57 1213.85 53.308L1215.65 53.759C1216.35 53.923 1216.84 54.579 1216.84 55.317C1216.84 56.219 1216.14 56.916 1215.24 56.916C1214.54 56.916 1213.97 56.506 1213.72 55.85L1214.34 55.604C1214.46 55.973 1214.79 56.26 1215.24 56.26C1215.77 56.26 1216.18 55.85 1216.18 55.317C1216.18 54.866 1215.94 54.497 1215.49 54.374L1213.64 53.923C1210.53 53.144 1208.23 50.315 1208.23 46.953ZM1208.64 58.187L1209.26 57.9C1210.24 60.237 1212.54 61.836 1215.24 61.836C1218.85 61.836 1221.76 58.925 1221.76 55.317C1221.76 52.242 1219.67 49.7 1216.8 48.962L1215 48.511C1214.26 48.306 1213.81 47.691 1213.81 46.953C1213.81 46.051 1214.5 45.354 1215.41 45.354C1216.1 45.354 1216.68 45.805 1216.88 46.42L1216.31 46.666C1216.18 46.297 1215.82 46.01 1215.41 46.01C1214.87 46.01 1214.46 46.42 1214.46 46.953C1214.46 47.404 1214.71 47.773 1215.16 47.896L1217 48.347C1220.16 49.126 1222.42 51.955 1222.42 55.317C1222.42 59.294 1219.22 62.492 1215.24 62.492C1212.29 62.492 1209.75 60.729 1208.64 58.187ZM1247.99 61.016L1258.08 33.3H1258.81L1248.36 62H1247.62L1245.04 54.907L1242.45 62H1241.72L1231.26 33.3H1232L1242.09 61.016L1244.67 53.923L1237.17 33.3H1237.9L1245.04 52.898L1252.17 33.3H1252.91L1245.41 53.882L1247.99 61.016ZM1273.69 42.115V60.155C1276.44 58.474 1278.61 55.071 1278.61 51.135C1278.61 47.199 1276.44 43.796 1273.69 42.115ZM1267.91 39.778C1269.75 39.778 1271.48 40.229 1273.03 41.008V40.27H1273.69V41.377C1275.99 42.648 1277.75 44.944 1278.61 47.322V40.27H1279.27V62H1278.61V54.907C1277.79 57.244 1275.99 59.663 1273.69 60.934V62H1273.03V61.262C1271.48 62.041 1269.75 62.492 1267.91 62.492C1261.64 62.492 1256.55 57.408 1256.55 51.135C1256.55 44.862 1261.64 39.778 1267.91 39.778ZM1267.91 61.836C1269.75 61.836 1271.52 61.385 1273.03 60.565V53.841C1272.05 55.645 1270.12 56.916 1267.91 56.916C1264.71 56.916 1262.13 54.333 1262.13 51.135C1262.13 47.937 1264.71 45.354 1267.91 45.354C1270.12 45.354 1272.05 46.625 1273.03 48.47V41.746C1271.52 40.926 1269.75 40.434 1267.91 40.434C1262 40.434 1257.21 45.231 1257.21 51.135C1257.21 57.039 1262 61.836 1267.91 61.836ZM1267.91 56.26C1270.78 56.26 1273.03 53.964 1273.03 51.135C1273.03 48.306 1270.78 46.01 1267.91 46.01C1265.08 46.01 1262.78 48.306 1262.78 51.135C1262.78 53.964 1265.08 56.26 1267.91 56.26ZM1289.02 62V42.689C1286.81 44.042 1284.1 46.83 1284.1 51.709V62H1283.45V40.27H1284.1V47.732C1285.13 44.903 1286.73 43.304 1289.02 41.951V40.27H1289.68V41.582C1291.32 40.762 1293.08 40.352 1294.8 40.352V41.008C1293.08 41.008 1291.28 41.459 1289.68 42.32V49.044C1290.62 47.199 1292.59 45.928 1294.8 45.928V46.584C1291.93 46.584 1289.68 48.88 1289.68 51.709V62H1289.02ZM1297.26 62V40.27H1297.92V62H1297.26ZM1303.49 40.27V62H1302.84V40.27H1303.49ZM1302.84 38.138V31.25H1303.49V38.138H1302.84ZM1297.92 31.25V38.138H1297.26V31.25H1297.92ZM1323.58 42.115V60.155C1326.33 58.474 1328.5 55.071 1328.5 51.135C1328.5 47.199 1326.33 43.796 1323.58 42.115ZM1317.8 39.778C1319.64 39.778 1321.36 40.229 1322.92 41.008V40.27H1323.58V41.377C1325.87 42.648 1327.64 44.944 1328.5 47.322V40.27H1329.15V62H1328.5V54.907C1327.68 57.244 1325.87 59.663 1323.58 60.934V62H1322.92V61.262C1321.36 62.041 1319.64 62.492 1317.8 62.492C1311.52 62.492 1306.44 57.408 1306.44 51.135C1306.44 44.862 1311.52 39.778 1317.8 39.778ZM1317.8 61.836C1319.64 61.836 1321.41 61.385 1322.92 60.565V53.841C1321.94 55.645 1320.01 56.916 1317.8 56.916C1314.6 56.916 1312.02 54.333 1312.02 51.135C1312.02 47.937 1314.6 45.354 1317.8 45.354C1320.01 45.354 1321.94 46.625 1322.92 48.47V41.746C1321.41 40.926 1319.64 40.434 1317.8 40.434C1311.89 40.434 1307.1 45.231 1307.1 51.135C1307.1 57.039 1311.89 61.836 1317.8 61.836ZM1317.8 56.26C1320.67 56.26 1322.92 53.964 1322.92 51.135C1322.92 48.306 1320.67 46.01 1317.8 46.01C1314.97 46.01 1312.67 48.306 1312.67 51.135C1312.67 53.964 1314.97 56.26 1317.8 56.26ZM1344.28 62.492C1337.97 62.492 1332.88 57.367 1332.88 51.135V31.25H1333.54V47.363C1334.4 44.985 1336.16 42.689 1338.46 41.418V31.25H1339.12V41.008C1340.67 40.229 1342.44 39.778 1344.28 39.778C1350.56 39.778 1355.64 44.862 1355.64 51.135C1355.64 57.408 1350.56 62.492 1344.28 62.492ZM1344.28 56.916C1341.08 56.916 1338.46 54.292 1338.46 51.135V42.156C1335.71 43.837 1333.54 47.24 1333.54 51.176C1333.54 57.039 1338.3 61.836 1344.28 61.836C1350.19 61.836 1354.98 57.039 1354.98 51.135C1354.98 45.231 1350.19 40.434 1344.28 40.434C1342.44 40.434 1340.63 40.926 1339.12 41.746V48.511C1340.1 46.625 1342.07 45.354 1344.28 45.354C1347.48 45.354 1350.06 47.937 1350.06 51.135C1350.06 54.333 1347.48 56.916 1344.28 56.916ZM1344.28 46.01C1341.41 46.01 1339.12 48.306 1339.12 51.135C1339.12 53.964 1341.41 56.26 1344.28 56.26C1347.11 56.26 1349.41 53.964 1349.41 51.135C1349.41 48.306 1347.11 46.01 1344.28 46.01ZM1359.26 31.25V62H1358.6V31.25H1359.26ZM1364.83 31.25V62H1364.18V31.25H1364.83ZM1367.78 51.135C1367.78 44.862 1372.86 39.778 1379.14 39.778C1384.14 39.778 1388.36 42.976 1389.88 47.486L1376.55 55.563C1377.33 56.014 1378.19 56.26 1379.14 56.26C1381.19 56.26 1382.95 55.03 1383.77 53.308L1384.39 53.595C1383.48 55.563 1381.47 56.916 1379.14 56.916C1377.95 56.916 1376.84 56.547 1375.94 55.932L1371.51 58.638C1373.44 60.606 1376.14 61.836 1379.14 61.836C1383.4 61.836 1387.13 59.294 1388.85 55.645L1389.43 55.932C1387.62 59.827 1383.69 62.492 1379.14 62.492C1372.86 62.492 1367.78 57.408 1367.78 51.135ZM1368.44 51.135C1368.44 52.324 1368.64 53.431 1368.97 54.497L1373.4 51.791C1373.36 51.586 1373.36 51.34 1373.36 51.135C1373.36 47.937 1375.94 45.354 1379.14 45.354C1380.33 45.354 1381.47 45.723 1382.38 46.338L1386.76 43.673C1384.84 41.664 1382.13 40.434 1379.14 40.434C1373.23 40.434 1368.44 45.231 1368.44 51.135ZM1369.22 55.112C1369.67 56.219 1370.28 57.244 1371.06 58.146L1375.37 55.522C1374.46 54.743 1373.81 53.677 1373.52 52.488L1369.22 55.112ZM1374.01 51.135V51.422L1381.76 46.707C1380.98 46.256 1380.08 46.01 1379.14 46.01C1376.31 46.01 1374.01 48.306 1374.01 51.135ZM1374.09 52.16C1374.34 53.349 1375.04 54.415 1375.98 55.153L1384.18 50.151C1383.93 48.962 1383.28 47.896 1382.34 47.117L1374.09 52.16ZM1382.95 46.789C1383.85 47.568 1384.51 48.593 1384.75 49.823L1389.1 47.158C1388.65 46.051 1387.99 45.067 1387.26 44.165L1382.95 46.789ZM1390.89 46.953C1390.89 42.976 1394.09 39.778 1398.06 39.778C1401.02 39.778 1403.56 41.582 1404.66 44.124L1404.05 44.411C1403.07 42.074 1400.73 40.434 1398.06 40.434C1394.46 40.434 1391.54 43.345 1391.54 46.953C1391.54 50.028 1393.64 52.57 1396.51 53.308L1398.31 53.759C1399.01 53.923 1399.5 54.579 1399.5 55.317C1399.5 56.219 1398.8 56.916 1397.9 56.916C1397.2 56.916 1396.63 56.506 1396.38 55.85L1397 55.604C1397.12 55.973 1397.45 56.26 1397.9 56.26C1398.43 56.26 1398.84 55.85 1398.84 55.317C1398.84 54.866 1398.6 54.497 1398.15 54.374L1396.3 53.923C1393.18 53.144 1390.89 50.315 1390.89 46.953ZM1391.3 58.187L1391.91 57.9C1392.9 60.237 1395.19 61.836 1397.9 61.836C1401.51 61.836 1404.42 58.925 1404.42 55.317C1404.42 52.242 1402.33 49.7 1399.46 48.962L1397.65 48.511C1396.92 48.306 1396.46 47.691 1396.46 46.953C1396.46 46.051 1397.16 45.354 1398.06 45.354C1398.76 45.354 1399.33 45.805 1399.54 46.42L1398.97 46.666C1398.84 46.297 1398.47 46.01 1398.06 46.01C1397.53 46.01 1397.12 46.42 1397.12 46.953C1397.12 47.404 1397.37 47.773 1397.82 47.896L1399.66 48.347C1402.82 49.126 1405.07 51.955 1405.07 55.317C1405.07 59.294 1401.88 62.492 1397.9 62.492C1394.95 62.492 1392.41 60.729 1391.3 58.187ZM1435.68 61.959L1435.18 62.369L1432.56 59.499C1429.94 61.18 1426.98 62.492 1424.2 62.492C1419.73 62.492 1415.83 58.925 1415.83 54.456C1415.83 51.545 1417.59 48.757 1419.97 47.281L1421 46.625L1420.79 46.379C1419.56 44.985 1418.7 43.017 1418.7 40.967C1418.7 36.498 1422.35 32.808 1426.82 32.808C1431.29 32.808 1434.94 36.498 1434.94 40.967C1434.94 43.96 1433.09 46.379 1430.84 47.855L1430.59 48.019L1433.3 51.012C1434.61 49.782 1435.55 48.757 1435.84 48.429L1436.29 48.921C1436 49.208 1435.06 50.274 1433.71 51.504L1437.03 55.194C1438.34 54.046 1439.32 53.062 1439.78 52.611L1440.23 53.062C1439.78 53.513 1438.79 54.497 1437.48 55.686L1439.94 58.392L1439.45 58.802L1436.99 56.096C1435.59 57.285 1434.45 58.146 1433.13 59.13L1435.68 61.959ZM1421.45 47.158L1420.3 47.855C1418.05 49.249 1416.49 51.709 1416.49 54.456C1416.49 58.597 1420.05 61.836 1424.2 61.836C1426.82 61.836 1429.61 60.606 1432.11 59.007L1428.83 55.358C1427.23 56.383 1425.59 57.08 1424.2 57.08C1422.8 57.08 1421.41 55.85 1421.41 54.456C1421.41 53.39 1421.9 52.447 1423.09 51.75L1424.73 50.766L1421.45 47.158ZM1425.84 43.673L1425.02 42.771C1424.44 42.156 1424.28 41.541 1424.28 40.967C1424.28 39.573 1425.43 38.384 1426.82 38.384C1428.21 38.384 1429.36 39.573 1429.36 40.967C1429.36 41.951 1428.66 42.689 1427.89 43.181L1426.82 43.837L1430.14 47.527L1430.35 47.404C1432.64 46.01 1434.28 43.714 1434.28 40.967C1434.28 36.826 1430.96 33.464 1426.82 33.464C1422.68 33.464 1419.36 36.826 1419.36 40.967C1419.36 42.894 1420.1 44.657 1421.28 45.969L1421.57 46.297L1425.84 43.673ZM1424.2 56.424C1425.47 56.424 1426.94 55.768 1428.42 54.866L1425.18 51.258L1423.42 52.324C1422.43 52.939 1422.06 53.636 1422.06 54.456C1422.06 55.522 1423.13 56.424 1424.2 56.424ZM1424.93 40.967C1424.93 41.418 1425.1 41.91 1425.51 42.361L1426.37 43.345L1427.56 42.607C1428.21 42.197 1428.71 41.664 1428.71 40.967C1428.71 39.901 1427.89 39.04 1426.82 39.04C1425.75 39.04 1424.93 39.901 1424.93 40.967ZM1430.02 48.347L1425.75 50.93L1428.95 54.497C1430.3 53.554 1431.58 52.57 1432.81 51.463L1430.02 48.347ZM1434.94 56.957C1435.63 56.424 1436 56.096 1436.54 55.645L1433.26 51.914C1432.11 52.98 1430.76 54.046 1429.4 54.989L1432.68 58.638C1433.3 58.228 1434.45 57.326 1434.94 56.957ZM1429.57 47.855L1426.29 44.165L1422.02 46.789L1425.3 50.438L1429.57 47.855ZM1465.48 47.65C1465.48 43.263 1462.2 39.696 1457.74 39.532V55.768C1462.2 55.604 1465.48 52.037 1465.48 47.65ZM1457.74 56.424V61.344C1465.2 61.18 1471.06 55.153 1471.06 47.65C1471.06 40.188 1465.2 34.12 1457.74 33.956V38.876C1462.61 39.04 1466.14 42.935 1466.14 47.65C1466.14 52.365 1462.61 56.26 1457.74 56.424ZM1451.5 62V33.3H1457.41C1465.36 33.3 1471.72 39.737 1471.72 47.65C1471.72 55.563 1465.36 62 1457.41 62H1451.5ZM1457.08 55.768V39.532H1452.16V55.768H1457.08ZM1457.08 56.424H1452.16V61.344H1457.08V56.424ZM1457.08 38.876V33.956H1452.16V38.876H1457.08ZM1490.74 42.115V60.155C1493.49 58.474 1495.66 55.071 1495.66 51.135C1495.66 47.199 1493.49 43.796 1490.74 42.115ZM1484.96 39.778C1486.81 39.778 1488.53 40.229 1490.09 41.008V40.27H1490.74V41.377C1493.04 42.648 1494.8 44.944 1495.66 47.322V40.27H1496.32V62H1495.66V54.907C1494.84 57.244 1493.04 59.663 1490.74 60.934V62H1490.09V61.262C1488.53 62.041 1486.81 62.492 1484.96 62.492C1478.69 62.492 1473.6 57.408 1473.6 51.135C1473.6 44.862 1478.69 39.778 1484.96 39.778ZM1484.96 61.836C1486.81 61.836 1488.57 61.385 1490.09 60.565V53.841C1489.1 55.645 1487.17 56.916 1484.96 56.916C1481.76 56.916 1479.18 54.333 1479.18 51.135C1479.18 47.937 1481.76 45.354 1484.96 45.354C1487.17 45.354 1489.1 46.625 1490.09 48.47V41.746C1488.57 40.926 1486.81 40.434 1484.96 40.434C1479.06 40.434 1474.26 45.231 1474.26 51.135C1474.26 57.039 1479.06 61.836 1484.96 61.836ZM1484.96 56.26C1487.83 56.26 1490.09 53.964 1490.09 51.135C1490.09 48.306 1487.83 46.01 1484.96 46.01C1482.13 46.01 1479.84 48.306 1479.84 51.135C1479.84 53.964 1482.13 56.26 1484.96 56.26ZM1502.55 40.926H1499.31V40.27H1502.55V33.3H1503.2V40.27H1508.12V33.3H1508.78V40.27H1512.02V40.926H1508.78V45.846H1512.02V46.502H1508.78V62H1508.12V46.502H1503.2V62H1502.55V46.502H1499.31V45.846H1502.55V40.926ZM1508.12 40.926H1503.2V45.846H1508.12V40.926ZM1530.5 42.115V60.155C1533.25 58.474 1535.42 55.071 1535.42 51.135C1535.42 47.199 1533.25 43.796 1530.5 42.115ZM1524.72 39.778C1526.56 39.778 1528.29 40.229 1529.84 41.008V40.27H1530.5V41.377C1532.8 42.648 1534.56 44.944 1535.42 47.322V40.27H1536.08V62H1535.42V54.907C1534.6 57.244 1532.8 59.663 1530.5 60.934V62H1529.84V61.262C1528.29 62.041 1526.56 62.492 1524.72 62.492C1518.45 62.492 1513.36 57.408 1513.36 51.135C1513.36 44.862 1518.45 39.778 1524.72 39.778ZM1524.72 61.836C1526.56 61.836 1528.33 61.385 1529.84 60.565V53.841C1528.86 55.645 1526.93 56.916 1524.72 56.916C1521.52 56.916 1518.94 54.333 1518.94 51.135C1518.94 47.937 1521.52 45.354 1524.72 45.354C1526.93 45.354 1528.86 46.625 1529.84 48.47V41.746C1528.33 40.926 1526.56 40.434 1524.72 40.434C1518.82 40.434 1514.02 45.231 1514.02 51.135C1514.02 57.039 1518.82 61.836 1524.72 61.836ZM1524.72 56.26C1527.59 56.26 1529.84 53.964 1529.84 51.135C1529.84 48.306 1527.59 46.01 1524.72 46.01C1521.89 46.01 1519.59 48.306 1519.59 51.135C1519.59 53.964 1521.89 56.26 1524.72 56.26ZM1552.46 33.956H1546.59V33.3H1564.55V33.956H1558.69V38.876H1564.55V39.532H1558.69V62H1558.03V39.532H1553.11V62H1552.46V39.532H1546.59V38.876H1552.46V33.956ZM1558.03 33.956H1553.11V38.876H1558.03V33.956ZM1587.78 40.27L1573.59 71.02H1572.9L1575.44 65.526L1572.57 59.376L1567.2 71.02H1566.5L1572.24 58.597L1563.67 40.27H1564.37L1572.57 57.859L1575.4 51.75L1570.07 40.27H1570.76L1575.77 50.971L1580.69 40.27H1581.38L1576.09 51.709L1578.96 57.859L1587.08 40.27H1587.78ZM1575.81 64.747L1578.64 58.638L1575.77 52.488L1572.94 58.638L1575.81 64.747ZM1595.32 60.155V42.115C1592.57 43.796 1590.4 47.199 1590.4 51.135C1590.4 55.071 1592.57 58.474 1595.32 60.155ZM1601.1 62.492C1599.26 62.492 1597.54 62.041 1595.98 61.262V71.02H1595.32V60.893C1593.03 59.622 1591.22 57.285 1590.4 54.948V71.02H1589.75V40.27H1590.4V47.363C1591.22 44.985 1593.03 42.607 1595.32 41.336V40.27H1595.98V41.008C1597.54 40.229 1599.26 39.778 1601.1 39.778C1607.38 39.778 1612.46 44.862 1612.46 51.135C1612.46 57.408 1607.38 62.492 1601.1 62.492ZM1601.1 56.916C1598.89 56.916 1596.96 55.645 1595.98 53.8V60.524C1597.49 61.344 1599.26 61.836 1601.1 61.836C1607.01 61.836 1611.8 57.039 1611.8 51.135C1611.8 45.231 1607.01 40.434 1601.1 40.434C1599.26 40.434 1597.49 40.885 1595.98 41.705V48.429C1596.96 46.625 1598.89 45.354 1601.1 45.354C1604.3 45.354 1606.88 47.937 1606.88 51.135C1606.88 54.333 1604.3 56.916 1601.1 56.916ZM1601.1 46.01C1598.23 46.01 1595.98 48.306 1595.98 51.135C1595.98 53.964 1598.23 56.26 1601.1 56.26C1603.93 56.26 1606.23 53.964 1606.23 51.135C1606.23 48.306 1603.93 46.01 1601.1 46.01ZM1614.18 51.135C1614.18 44.862 1619.26 39.778 1625.54 39.778C1630.54 39.778 1634.76 42.976 1636.28 47.486L1622.95 55.563C1623.73 56.014 1624.59 56.26 1625.54 56.26C1627.59 56.26 1629.35 55.03 1630.17 53.308L1630.79 53.595C1629.88 55.563 1627.87 56.916 1625.54 56.916C1624.35 56.916 1623.24 56.547 1622.34 55.932L1617.91 58.638C1619.84 60.606 1622.54 61.836 1625.54 61.836C1629.8 61.836 1633.53 59.294 1635.25 55.645L1635.83 55.932C1634.02 59.827 1630.09 62.492 1625.54 62.492C1619.26 62.492 1614.18 57.408 1614.18 51.135ZM1614.84 51.135C1614.84 52.324 1615.04 53.431 1615.37 54.497L1619.8 51.791C1619.76 51.586 1619.76 51.34 1619.76 51.135C1619.76 47.937 1622.34 45.354 1625.54 45.354C1626.73 45.354 1627.87 45.723 1628.78 46.338L1633.16 43.673C1631.24 41.664 1628.53 40.434 1625.54 40.434C1619.63 40.434 1614.84 45.231 1614.84 51.135ZM1615.62 55.112C1616.07 56.219 1616.68 57.244 1617.46 58.146L1621.77 55.522C1620.86 54.743 1620.21 53.677 1619.92 52.488L1615.62 55.112ZM1620.41 51.135V51.422L1628.16 46.707C1627.38 46.256 1626.48 46.01 1625.54 46.01C1622.71 46.01 1620.41 48.306 1620.41 51.135ZM1620.49 52.16C1620.74 53.349 1621.44 54.415 1622.38 55.153L1630.58 50.151C1630.33 48.962 1629.68 47.896 1628.74 47.117L1620.49 52.16ZM1629.35 46.789C1630.25 47.568 1630.91 48.593 1631.15 49.823L1635.5 47.158C1635.05 46.051 1634.39 45.067 1633.66 44.165L1629.35 46.789ZM1637.29 46.953C1637.29 42.976 1640.49 39.778 1644.46 39.778C1647.42 39.778 1649.96 41.582 1651.07 44.124L1650.45 44.411C1649.47 42.074 1647.13 40.434 1644.46 40.434C1640.86 40.434 1637.95 43.345 1637.95 46.953C1637.95 50.028 1640.04 52.57 1642.91 53.308L1644.71 53.759C1645.41 53.923 1645.9 54.579 1645.9 55.317C1645.9 56.219 1645.2 56.916 1644.3 56.916C1643.6 56.916 1643.03 56.506 1642.78 55.85L1643.4 55.604C1643.52 55.973 1643.85 56.26 1644.3 56.26C1644.83 56.26 1645.24 55.85 1645.24 55.317C1645.24 54.866 1645 54.497 1644.55 54.374L1642.7 53.923C1639.59 53.144 1637.29 50.315 1637.29 46.953ZM1637.7 58.187L1638.31 57.9C1639.3 60.237 1641.59 61.836 1644.3 61.836C1647.91 61.836 1650.82 58.925 1650.82 55.317C1650.82 52.242 1648.73 49.7 1645.86 48.962L1644.05 48.511C1643.32 48.306 1642.87 47.691 1642.87 46.953C1642.87 46.051 1643.56 45.354 1644.46 45.354C1645.16 45.354 1645.74 45.805 1645.94 46.42L1645.37 46.666C1645.24 46.297 1644.87 46.01 1644.46 46.01C1643.93 46.01 1643.52 46.42 1643.52 46.953C1643.52 47.404 1643.77 47.773 1644.22 47.896L1646.06 48.347C1649.22 49.126 1651.48 51.955 1651.48 55.317C1651.48 59.294 1648.28 62.492 1644.3 62.492C1641.35 62.492 1638.81 60.729 1637.7 58.187ZM1677.05 61.016L1687.13 33.3H1687.87L1677.42 62H1676.68L1674.1 54.907L1671.51 62H1670.77L1660.32 33.3H1661.06L1671.14 61.016L1673.73 53.923L1666.22 33.3H1666.96L1674.1 52.898L1681.23 33.3H1681.97L1674.46 53.882L1677.05 61.016ZM1702.75 42.115V60.155C1705.5 58.474 1707.67 55.071 1707.67 51.135C1707.67 47.199 1705.5 43.796 1702.75 42.115ZM1696.97 39.778C1698.81 39.778 1700.53 40.229 1702.09 41.008V40.27H1702.75V41.377C1705.04 42.648 1706.81 44.944 1707.67 47.322V40.27H1708.32V62H1707.67V54.907C1706.85 57.244 1705.04 59.663 1702.75 60.934V62H1702.09V61.262C1700.53 62.041 1698.81 62.492 1696.97 62.492C1690.69 62.492 1685.61 57.408 1685.61 51.135C1685.61 44.862 1690.69 39.778 1696.97 39.778ZM1696.97 61.836C1698.81 61.836 1700.58 61.385 1702.09 60.565V53.841C1701.11 55.645 1699.18 56.916 1696.97 56.916C1693.77 56.916 1691.19 54.333 1691.19 51.135C1691.19 47.937 1693.77 45.354 1696.97 45.354C1699.18 45.354 1701.11 46.625 1702.09 48.47V41.746C1700.58 40.926 1698.81 40.434 1696.97 40.434C1691.06 40.434 1686.27 45.231 1686.27 51.135C1686.27 57.039 1691.06 61.836 1696.97 61.836ZM1696.97 56.26C1699.84 56.26 1702.09 53.964 1702.09 51.135C1702.09 48.306 1699.84 46.01 1696.97 46.01C1694.14 46.01 1691.84 48.306 1691.84 51.135C1691.84 53.964 1694.14 56.26 1696.97 56.26ZM1718.08 62V42.689C1715.87 44.042 1713.16 46.83 1713.16 51.709V62H1712.51V40.27H1713.16V47.732C1714.19 44.903 1715.79 43.304 1718.08 41.951V40.27H1718.74V41.582C1720.38 40.762 1722.14 40.352 1723.86 40.352V41.008C1722.14 41.008 1720.34 41.459 1718.74 42.32V49.044C1719.68 47.199 1721.65 45.928 1723.86 45.928V46.584C1720.99 46.584 1718.74 48.88 1718.74 51.709V62H1718.08ZM1726.32 62V40.27H1726.98V62H1726.32ZM1732.55 40.27V62H1731.9V40.27H1732.55ZM1731.9 38.138V31.25H1732.55V38.138H1731.9ZM1726.98 31.25V38.138H1726.32V31.25H1726.98ZM1752.64 42.115V60.155C1755.38 58.474 1757.56 55.071 1757.56 51.135C1757.56 47.199 1755.38 43.796 1752.64 42.115ZM1746.86 39.778C1748.7 39.778 1750.42 40.229 1751.98 41.008V40.27H1752.64V41.377C1754.93 42.648 1756.7 44.944 1757.56 47.322V40.27H1758.21V62H1757.56V54.907C1756.74 57.244 1754.93 59.663 1752.64 60.934V62H1751.98V61.262C1750.42 62.041 1748.7 62.492 1746.86 62.492C1740.58 62.492 1735.5 57.408 1735.5 51.135C1735.5 44.862 1740.58 39.778 1746.86 39.778ZM1746.86 61.836C1748.7 61.836 1750.46 61.385 1751.98 60.565V53.841C1751 55.645 1749.07 56.916 1746.86 56.916C1743.66 56.916 1741.08 54.333 1741.08 51.135C1741.08 47.937 1743.66 45.354 1746.86 45.354C1749.07 45.354 1751 46.625 1751.98 48.47V41.746C1750.46 40.926 1748.7 40.434 1746.86 40.434C1740.95 40.434 1736.16 45.231 1736.16 51.135C1736.16 57.039 1740.95 61.836 1746.86 61.836ZM1746.86 56.26C1749.73 56.26 1751.98 53.964 1751.98 51.135C1751.98 48.306 1749.73 46.01 1746.86 46.01C1744.03 46.01 1741.73 48.306 1741.73 51.135C1741.73 53.964 1744.03 56.26 1746.86 56.26ZM1773.34 62.492C1767.03 62.492 1761.94 57.367 1761.94 51.135V31.25H1762.6V47.363C1763.46 44.985 1765.22 42.689 1767.52 41.418V31.25H1768.18V41.008C1769.73 40.229 1771.5 39.778 1773.34 39.778C1779.61 39.778 1784.7 44.862 1784.7 51.135C1784.7 57.408 1779.61 62.492 1773.34 62.492ZM1773.34 56.916C1770.14 56.916 1767.52 54.292 1767.52 51.135V42.156C1764.77 43.837 1762.6 47.24 1762.6 51.176C1762.6 57.039 1767.36 61.836 1773.34 61.836C1779.25 61.836 1784.04 57.039 1784.04 51.135C1784.04 45.231 1779.25 40.434 1773.34 40.434C1771.5 40.434 1769.69 40.926 1768.18 41.746V48.511C1769.16 46.625 1771.13 45.354 1773.34 45.354C1776.54 45.354 1779.12 47.937 1779.12 51.135C1779.12 54.333 1776.54 56.916 1773.34 56.916ZM1773.34 46.01C1770.47 46.01 1768.18 48.306 1768.18 51.135C1768.18 53.964 1770.47 56.26 1773.34 56.26C1776.17 56.26 1778.47 53.964 1778.47 51.135C1778.47 48.306 1776.17 46.01 1773.34 46.01ZM1788.31 31.25V62H1787.66V31.25H1788.31ZM1793.89 31.25V62H1793.23V31.25H1793.89ZM1796.84 51.135C1796.84 44.862 1801.92 39.778 1808.2 39.778C1813.2 39.778 1817.42 42.976 1818.94 47.486L1805.61 55.563C1806.39 56.014 1807.25 56.26 1808.2 56.26C1810.25 56.26 1812.01 55.03 1812.83 53.308L1813.44 53.595C1812.54 55.563 1810.53 56.916 1808.2 56.916C1807.01 56.916 1805.9 56.547 1805 55.932L1800.57 58.638C1802.5 60.606 1805.2 61.836 1808.2 61.836C1812.46 61.836 1816.19 59.294 1817.91 55.645L1818.49 55.932C1816.68 59.827 1812.75 62.492 1808.2 62.492C1801.92 62.492 1796.84 57.408 1796.84 51.135ZM1797.5 51.135C1797.5 52.324 1797.7 53.431 1798.03 54.497L1802.46 51.791C1802.42 51.586 1802.42 51.34 1802.42 51.135C1802.42 47.937 1805 45.354 1808.2 45.354C1809.39 45.354 1810.53 45.723 1811.44 46.338L1815.82 43.673C1813.9 41.664 1811.19 40.434 1808.2 40.434C1802.29 40.434 1797.5 45.231 1797.5 51.135ZM1798.27 55.112C1798.73 56.219 1799.34 57.244 1800.12 58.146L1804.42 55.522C1803.52 54.743 1802.87 53.677 1802.58 52.488L1798.27 55.112ZM1803.07 51.135V51.422L1810.82 46.707C1810.04 46.256 1809.14 46.01 1808.2 46.01C1805.37 46.01 1803.07 48.306 1803.07 51.135ZM1803.15 52.16C1803.4 53.349 1804.1 54.415 1805.04 55.153L1813.24 50.151C1812.99 48.962 1812.34 47.896 1811.39 47.117L1803.15 52.16ZM1812.01 46.789C1812.91 47.568 1813.57 48.593 1813.81 49.823L1818.16 47.158C1817.71 46.051 1817.05 45.067 1816.31 44.165L1812.01 46.789ZM1819.95 46.953C1819.95 42.976 1823.15 39.778 1827.12 39.778C1830.07 39.778 1832.62 41.582 1833.72 44.124L1833.11 44.411C1832.12 42.074 1829.79 40.434 1827.12 40.434C1823.51 40.434 1820.6 43.345 1820.6 46.953C1820.6 50.028 1822.69 52.57 1825.56 53.308L1827.37 53.759C1828.07 53.923 1828.56 54.579 1828.56 55.317C1828.56 56.219 1827.86 56.916 1826.96 56.916C1826.26 56.916 1825.69 56.506 1825.44 55.85L1826.06 55.604C1826.18 55.973 1826.51 56.26 1826.96 56.26C1827.49 56.26 1827.9 55.85 1827.9 55.317C1827.9 54.866 1827.66 54.497 1827.2 54.374L1825.36 53.923C1822.24 53.144 1819.95 50.315 1819.95 46.953ZM1820.36 58.187L1820.97 57.9C1821.96 60.237 1824.25 61.836 1826.96 61.836C1830.57 61.836 1833.48 58.925 1833.48 55.317C1833.48 52.242 1831.39 49.7 1828.52 48.962L1826.71 48.511C1825.97 48.306 1825.52 47.691 1825.52 46.953C1825.52 46.051 1826.22 45.354 1827.12 45.354C1827.82 45.354 1828.39 45.805 1828.6 46.42L1828.02 46.666C1827.9 46.297 1827.53 46.01 1827.12 46.01C1826.59 46.01 1826.18 46.42 1826.18 46.953C1826.18 47.404 1826.43 47.773 1826.88 47.896L1828.72 48.347C1831.88 49.126 1834.13 51.955 1834.13 55.317C1834.13 59.294 1830.94 62.492 1826.96 62.492C1824.01 62.492 1821.46 60.729 1820.36 58.187ZM1864.73 61.959L1864.24 62.369L1861.62 59.499C1858.99 61.18 1856.04 62.492 1853.25 62.492C1848.78 62.492 1844.89 58.925 1844.89 54.456C1844.89 51.545 1846.65 48.757 1849.03 47.281L1850.06 46.625L1849.85 46.379C1848.62 44.985 1847.76 43.017 1847.76 40.967C1847.76 36.498 1851.41 32.808 1855.88 32.808C1860.35 32.808 1864 36.498 1864 40.967C1864 43.96 1862.15 46.379 1859.9 47.855L1859.65 48.019L1862.36 51.012C1863.67 49.782 1864.61 48.757 1864.9 48.429L1865.35 48.921C1865.06 49.208 1864.12 50.274 1862.77 51.504L1866.09 55.194C1867.4 54.046 1868.38 53.062 1868.83 52.611L1869.28 53.062C1868.83 53.513 1867.85 54.497 1866.54 55.686L1869 58.392L1868.51 58.802L1866.05 56.096C1864.65 57.285 1863.5 58.146 1862.19 59.13L1864.73 61.959ZM1850.51 47.158L1849.36 47.855C1847.1 49.249 1845.55 51.709 1845.55 54.456C1845.55 58.597 1849.11 61.836 1853.25 61.836C1855.88 61.836 1858.67 60.606 1861.17 59.007L1857.89 55.358C1856.29 56.383 1854.65 57.08 1853.25 57.08C1851.86 57.08 1850.47 55.85 1850.47 54.456C1850.47 53.39 1850.96 52.447 1852.15 51.75L1853.79 50.766L1850.51 47.158ZM1854.89 43.673L1854.07 42.771C1853.5 42.156 1853.34 41.541 1853.34 40.967C1853.34 39.573 1854.48 38.384 1855.88 38.384C1857.27 38.384 1858.42 39.573 1858.42 40.967C1858.42 41.951 1857.72 42.689 1856.94 43.181L1855.88 43.837L1859.2 47.527L1859.4 47.404C1861.7 46.01 1863.34 43.714 1863.34 40.967C1863.34 36.826 1860.02 33.464 1855.88 33.464C1851.74 33.464 1848.42 36.826 1848.42 40.967C1848.42 42.894 1849.15 44.657 1850.34 45.969L1850.63 46.297L1854.89 43.673ZM1853.25 56.424C1854.52 56.424 1856 55.768 1857.48 54.866L1854.24 51.258L1852.47 52.324C1851.49 52.939 1851.12 53.636 1851.12 54.456C1851.12 55.522 1852.19 56.424 1853.25 56.424ZM1853.99 40.967C1853.99 41.418 1854.16 41.91 1854.57 42.361L1855.43 43.345L1856.62 42.607C1857.27 42.197 1857.76 41.664 1857.76 40.967C1857.76 39.901 1856.94 39.04 1855.88 39.04C1854.81 39.04 1853.99 39.901 1853.99 40.967ZM1859.08 48.347L1854.81 50.93L1858.01 54.497C1859.36 53.554 1860.63 52.57 1861.86 51.463L1859.08 48.347ZM1864 56.957C1864.69 56.424 1865.06 56.096 1865.59 55.645L1862.31 51.914C1861.17 52.98 1859.81 54.046 1858.46 54.989L1861.74 58.638C1862.36 58.228 1863.5 57.326 1864 56.957ZM1858.62 47.855L1855.34 44.165L1851.08 46.789L1854.36 50.438L1858.62 47.855ZM1894.54 47.65C1894.54 43.263 1891.26 39.696 1886.79 39.532V55.768C1891.26 55.604 1894.54 52.037 1894.54 47.65ZM1886.79 56.424V61.344C1894.26 61.18 1900.12 55.153 1900.12 47.65C1900.12 40.188 1894.26 34.12 1886.79 33.956V38.876C1891.67 39.04 1895.2 42.935 1895.2 47.65C1895.2 52.365 1891.67 56.26 1886.79 56.424ZM1880.56 62V33.3H1886.47C1894.42 33.3 1900.77 39.737 1900.77 47.65C1900.77 55.563 1894.42 62 1886.47 62H1880.56ZM1886.14 55.768V39.532H1881.22V55.768H1886.14ZM1886.14 56.424H1881.22V61.344H1886.14V56.424ZM1886.14 38.876V33.956H1881.22V38.876H1886.14ZM1919.8 42.115V60.155C1922.55 58.474 1924.72 55.071 1924.72 51.135C1924.72 47.199 1922.55 43.796 1919.8 42.115ZM1914.02 39.778C1915.86 39.778 1917.59 40.229 1919.14 41.008V40.27H1919.8V41.377C1922.1 42.648 1923.86 44.944 1924.72 47.322V40.27H1925.38V62H1924.72V54.907C1923.9 57.244 1922.1 59.663 1919.8 60.934V62H1919.14V61.262C1917.59 62.041 1915.86 62.492 1914.02 62.492C1907.75 62.492 1902.66 57.408 1902.66 51.135C1902.66 44.862 1907.75 39.778 1914.02 39.778ZM1914.02 61.836C1915.86 61.836 1917.63 61.385 1919.14 60.565V53.841C1918.16 55.645 1916.23 56.916 1914.02 56.916C1910.82 56.916 1908.24 54.333 1908.24 51.135C1908.24 47.937 1910.82 45.354 1914.02 45.354C1916.23 45.354 1918.16 46.625 1919.14 48.47V41.746C1917.63 40.926 1915.86 40.434 1914.02 40.434C1908.12 40.434 1903.32 45.231 1903.32 51.135C1903.32 57.039 1908.12 61.836 1914.02 61.836ZM1914.02 56.26C1916.89 56.26 1919.14 53.964 1919.14 51.135C1919.14 48.306 1916.89 46.01 1914.02 46.01C1911.19 46.01 1908.89 48.306 1908.89 51.135C1908.89 53.964 1911.19 56.26 1914.02 56.26ZM1931.61 40.926H1928.37V40.27H1931.61V33.3H1932.26V40.27H1937.18V33.3H1937.84V40.27H1941.08V40.926H1937.84V45.846H1941.08V46.502H1937.84V62H1937.18V46.502H1932.26V62H1931.61V46.502H1928.37V45.846H1931.61V40.926ZM1937.18 40.926H1932.26V45.846H1937.18V40.926ZM1959.56 42.115V60.155C1962.31 58.474 1964.48 55.071 1964.48 51.135C1964.48 47.199 1962.31 43.796 1959.56 42.115ZM1953.78 39.778C1955.62 39.778 1957.35 40.229 1958.9 41.008V40.27H1959.56V41.377C1961.86 42.648 1963.62 44.944 1964.48 47.322V40.27H1965.14V62H1964.48V54.907C1963.66 57.244 1961.86 59.663 1959.56 60.934V62H1958.9V61.262C1957.35 62.041 1955.62 62.492 1953.78 62.492C1947.51 62.492 1942.42 57.408 1942.42 51.135C1942.42 44.862 1947.51 39.778 1953.78 39.778ZM1953.78 61.836C1955.62 61.836 1957.39 61.385 1958.9 60.565V53.841C1957.92 55.645 1955.99 56.916 1953.78 56.916C1950.58 56.916 1948 54.333 1948 51.135C1948 47.937 1950.58 45.354 1953.78 45.354C1955.99 45.354 1957.92 46.625 1958.9 48.47V41.746C1957.39 40.926 1955.62 40.434 1953.78 40.434C1947.87 40.434 1943.08 45.231 1943.08 51.135C1943.08 57.039 1947.87 61.836 1953.78 61.836ZM1953.78 56.26C1956.65 56.26 1958.9 53.964 1958.9 51.135C1958.9 48.306 1956.65 46.01 1953.78 46.01C1950.95 46.01 1948.65 48.306 1948.65 51.135C1948.65 53.964 1950.95 56.26 1953.78 56.26Z" fill="white"/>
</g>
<defs>
<clipPath id="clip0_880_619">
<rect width="1940" height="343" fill="white"/>
</clipPath>
</defs>
</svg>
